<svg width="1600" height="290" viewBox="0 0 1600 290" fill="none" xmlns="http://www.w3.org/2000/svg">
<g clip-path="url(#clip0_6013_29868)" filter="url(#filter0_b_6013_29868)">
<rect width="1600" height="290" fill="white" fill-opacity="0.2"/>
<line x1="-124" y1="38.5" x2="1724" y2="38.5" stroke="#E5E7EB"/>
<line x1="-124" y1="91.5" x2="1724" y2="91.5" stroke="#E5E7EB"/>
<line x1="-124" y1="197.5" x2="1724" y2="197.5" stroke="#E5E7EB"/>
<line x1="-124" y1="250.5" x2="1724" y2="250.5" stroke="#E5E7EB"/>
<circle cx="274" cy="145" r="52.5" stroke="#9CA3AF" stroke-opacity="0.5"/>
<circle cx="344" cy="145" r="52.5" stroke="#9CA3AF" stroke-opacity="0.5"/>
<circle cx="520" cy="145" r="52.5" stroke="#9CA3AF" stroke-opacity="0.5"/>
<circle cx="590" cy="145" r="52.5" stroke="#9CA3AF" stroke-opacity="0.5"/>
<g clip-path="url(#clip1_6013_29868)">
<path d="M537 145C536.993 152.438 538.61 159.786 541.736 166.525C544.862 173.265 549.421 179.23 555.09 184C560.704 179.194 565.213 173.217 568.306 166.483C571.398 159.749 573 152.419 573 145C573 137.581 571.398 130.25 568.306 123.516C565.213 116.782 560.704 110.806 555.09 106C549.421 110.77 544.862 116.735 541.736 123.474C538.61 130.213 536.993 137.562 537 145Z" fill="#9CA3AF" fill-opacity="0.5"/>
</g>
<path d="M713 146C712.991 155.917 715.147 165.715 719.315 174.701C723.483 183.686 729.561 191.641 737.119 198C744.605 191.592 750.617 183.623 754.741 174.644C758.864 165.666 761 155.892 761 146C761 136.108 758.864 126.334 754.741 117.355C750.617 108.376 744.605 100.408 737.119 94C729.561 100.359 723.483 108.313 719.315 117.299C715.147 126.285 712.991 136.083 713 146Z" fill="#9CA3AF" fill-opacity="0.5"/>
<path d="M854 171.617C854.004 176.648 852.971 181.619 850.974 186.178C848.977 190.737 846.065 194.773 842.443 197.999C838.856 194.748 835.975 190.705 833.999 186.15C832.023 181.594 831 176.635 831 171.617C831 166.598 832.023 161.639 833.999 157.084C835.975 152.528 838.856 148.485 842.443 145.234C846.065 148.461 848.977 152.496 850.974 157.055C852.971 161.614 854.004 166.585 854 171.617Z" fill="#9CA3AF" fill-opacity="0.5"/>
<path d="M854 118.851C854.004 123.883 852.971 128.854 850.974 133.412C848.977 137.971 846.065 142.007 842.443 145.233C838.856 141.983 835.975 137.939 833.999 133.384C832.023 128.829 831 123.87 831 118.851C831 113.832 832.023 108.873 833.999 104.318C835.975 99.7626 838.856 95.7196 842.443 92.4688C846.065 95.6952 848.977 99.7306 850.974 104.29C852.971 108.848 854.004 113.82 854 118.851Z" fill="#9CA3AF" fill-opacity="0.5"/>
<path d="M986 178.5C986.003 182.219 985.24 185.893 983.763 189.263C982.287 192.632 980.135 195.615 977.458 198C974.807 195.597 972.677 192.609 971.217 189.242C969.756 185.875 969 182.21 969 178.5C969 174.79 969.756 171.125 971.217 167.758C972.677 164.391 974.807 161.403 977.458 159C980.135 161.385 982.287 164.367 983.763 167.737C985.24 171.107 986.003 174.781 986 178.5Z" fill="#9CA3AF" fill-opacity="0.5"/>
<path d="M986 110.5C986.003 114.219 985.24 117.893 983.763 121.263C982.287 124.632 980.135 127.615 977.458 130C974.807 127.597 972.677 124.609 971.217 121.242C969.756 117.875 969 114.21 969 110.5C969 106.79 969.756 103.125 971.217 99.7582C972.677 96.3911 974.807 93.4028 977.458 91C980.135 93.3848 982.287 96.3675 983.763 99.7371C985.24 103.107 986.003 106.781 986 110.5Z" fill="#9CA3AF" fill-opacity="0.5"/>
<path d="M943.5 153C939.781 153.003 936.107 152.24 932.737 150.763C929.368 149.287 926.385 147.135 924 144.458C926.403 141.807 929.391 139.677 932.758 138.217C936.125 136.756 939.79 136 943.5 136C947.21 136 950.875 136.756 954.242 138.217C957.609 139.677 960.597 141.807 963 144.458C960.615 147.135 957.633 149.287 954.263 150.763C950.893 152.24 947.219 153.003 943.5 153Z" fill="#9CA3AF" fill-opacity="0.5"/>
<path d="M1011.5 153C1007.78 153.003 1004.11 152.24 1000.74 150.763C997.368 149.287 994.385 147.135 992 144.458C994.403 141.807 997.391 139.677 1000.76 138.217C1004.13 136.756 1007.79 136 1011.5 136C1015.21 136 1018.87 136.756 1022.24 138.217C1025.61 139.677 1028.6 141.807 1031 144.458C1028.62 147.135 1025.63 149.287 1022.26 150.763C1018.89 152.24 1015.22 153.003 1011.5 153Z" fill="#9CA3AF" fill-opacity="0.5"/>
<path d="M959.469 174.55C956.842 177.182 953.704 179.24 950.277 180.579C946.851 181.918 943.22 182.505 939.64 182.299C939.465 178.725 940.072 175.106 941.42 171.693C942.769 168.279 944.825 165.153 947.448 162.529C950.071 159.906 953.198 157.85 956.612 156.501C960.025 155.153 963.644 154.546 967.217 154.721C967.424 158.301 966.837 161.932 965.498 165.358C964.159 168.785 962.101 171.923 959.469 174.55Z" fill="#9CA3AF" fill-opacity="0.5"/>
<path d="M1007.55 126.468C1004.92 129.1 1001.79 131.158 998.359 132.497C994.933 133.836 991.302 134.423 987.722 134.217C987.547 130.643 988.154 127.024 989.502 123.61C990.851 120.197 992.907 117.07 995.53 114.447C998.153 111.824 1001.28 109.768 1004.69 108.419C1008.11 107.071 1011.73 106.464 1015.3 106.639C1015.51 110.219 1014.92 113.85 1013.58 117.276C1012.24 120.703 1010.18 123.841 1007.55 126.468Z" fill="#9CA3AF" fill-opacity="0.5"/>
<path d="M947.45 126.469C944.818 123.842 942.76 120.704 941.421 117.277C940.082 113.851 939.495 110.22 939.701 106.64C943.275 106.465 946.894 107.072 950.307 108.42C953.721 109.769 956.847 111.825 959.471 114.448C962.094 117.071 964.15 120.198 965.499 123.612C966.847 127.025 967.454 130.644 967.279 134.217C963.699 134.424 960.068 133.837 956.642 132.498C953.215 131.159 950.077 129.101 947.45 126.469Z" fill="#9CA3AF" fill-opacity="0.5"/>
<path d="M995.532 174.551C992.9 171.924 990.842 168.786 989.503 165.359C988.164 161.933 987.577 158.302 987.783 154.722C991.357 154.547 994.976 155.154 998.39 156.502C1001.8 157.851 1004.93 159.907 1007.55 162.53C1010.18 165.153 1012.23 168.28 1013.58 171.694C1014.93 175.107 1015.54 178.726 1015.36 182.3C1011.78 182.506 1008.15 181.919 1004.72 180.58C1001.3 179.241 998.159 177.183 995.532 174.551Z" fill="#9CA3AF" fill-opacity="0.5"/>
<g clip-path="url(#clip2_6013_29868)">
<path d="M1148.9 100.593C1148.9 102.075 1149.22 103.54 1149.85 104.883C1150.47 106.226 1151.38 107.415 1152.51 108.366C1153.63 107.408 1154.53 106.217 1155.15 104.875C1155.77 103.533 1156.09 102.072 1156.09 100.593C1156.09 99.1145 1155.77 97.6535 1155.15 96.3114C1154.53 94.9693 1153.63 93.7781 1152.51 92.8203C1151.38 93.7709 1150.47 94.9598 1149.85 96.303C1149.22 97.6461 1148.9 99.1107 1148.9 100.593Z" fill="#9CA3AF" fill-opacity="0.5"/>
<path d="M1148.9 190.23C1148.9 191.712 1149.22 193.177 1149.85 194.52C1150.47 195.863 1151.38 197.052 1152.51 198.003C1153.63 197.045 1154.53 195.854 1155.15 194.512C1155.77 193.169 1156.09 191.708 1156.09 190.23C1156.09 188.751 1155.77 187.29 1155.15 185.948C1154.53 184.606 1153.63 183.415 1152.51 182.457C1151.38 183.408 1150.47 184.597 1149.85 185.94C1149.22 187.283 1148.9 188.747 1148.9 190.23Z" fill="#9CA3AF" fill-opacity="0.5"/>
<path d="M1133.88 104.538C1134.38 105.931 1135.18 107.196 1136.22 108.244C1137.27 109.292 1138.53 110.096 1139.91 110.6C1140.64 109.315 1141.08 107.886 1141.2 106.413C1141.33 104.939 1141.13 103.457 1140.63 102.067C1140.12 100.678 1139.33 99.4147 1138.29 98.3657C1137.25 97.3168 1136 96.5069 1134.62 95.9922C1133.88 97.2745 1133.43 98.7046 1133.3 100.181C1133.18 101.658 1133.37 103.145 1133.88 104.538Z" fill="#9CA3AF" fill-opacity="0.5"/>
<path d="M1164.36 188.768C1164.87 190.162 1165.67 191.427 1166.71 192.475C1167.75 193.522 1169.01 194.327 1170.4 194.831C1171.13 193.545 1171.57 192.117 1171.69 190.643C1171.81 189.17 1171.62 187.687 1171.12 186.298C1170.61 184.908 1169.81 183.645 1168.78 182.596C1167.74 181.547 1166.49 180.737 1165.11 180.223C1164.37 181.505 1163.92 182.935 1163.79 184.412C1163.66 185.888 1163.86 187.376 1164.36 188.768Z" fill="#9CA3AF" fill-opacity="0.5"/>
<path d="M1121.09 113.412C1122.04 114.549 1123.22 115.462 1124.56 116.088C1125.9 116.714 1127.35 117.037 1128.83 117.034C1129.08 115.576 1129 114.082 1128.62 112.655C1128.23 111.228 1127.54 109.902 1126.6 108.769C1125.65 107.637 1124.47 106.724 1123.14 106.095C1121.81 105.465 1120.36 105.135 1118.89 105.125C1118.63 106.584 1118.7 108.083 1119.08 109.515C1119.46 110.947 1120.15 112.278 1121.09 113.412Z" fill="#9CA3AF" fill-opacity="0.5"/>
<path d="M1178.4 182.077C1179.35 183.213 1180.53 184.126 1181.87 184.752C1183.2 185.378 1184.66 185.701 1186.13 185.698C1186.38 184.24 1186.31 182.746 1185.92 181.319C1185.54 179.892 1184.85 178.566 1183.9 177.433C1182.96 176.301 1181.78 175.388 1180.45 174.759C1179.12 174.13 1177.67 173.799 1176.2 173.789C1175.94 175.248 1176 176.747 1176.38 178.179C1176.76 179.611 1177.45 180.942 1178.4 182.077Z" fill="#9CA3AF" fill-opacity="0.5"/>
<path d="M1112.1 126.146C1113.38 126.889 1114.8 127.34 1116.27 127.468C1117.74 127.597 1119.22 127.399 1120.6 126.889C1120.34 125.435 1119.76 124.055 1118.92 122.847C1118.07 121.638 1116.97 120.63 1115.7 119.89C1114.42 119.151 1113.01 118.699 1111.54 118.565C1110.08 118.432 1108.6 118.62 1107.21 119.116C1107.47 120.577 1108.04 121.963 1108.88 123.178C1109.73 124.393 1110.83 125.406 1112.1 126.146Z" fill="#9CA3AF" fill-opacity="0.5"/>
<path d="M1189.31 170.963C1190.59 171.705 1192.01 172.156 1193.48 172.285C1194.95 172.413 1196.43 172.215 1197.81 171.705C1197.55 170.251 1196.97 168.872 1196.12 167.663C1195.28 166.455 1194.18 165.446 1192.9 164.707C1191.63 163.967 1190.21 163.515 1188.75 163.382C1187.28 163.248 1185.81 163.436 1184.42 163.933C1184.67 165.393 1185.24 166.78 1186.09 167.994C1186.93 169.209 1188.03 170.222 1189.31 170.963Z" fill="#9CA3AF" fill-opacity="0.5"/>
<path d="M1107.99 141.203C1109.44 141.461 1110.93 141.396 1112.35 141.012C1113.78 140.627 1115.1 139.933 1116.23 138.978C1115.48 137.702 1114.47 136.604 1113.27 135.76C1112.06 134.916 1110.68 134.345 1109.23 134.089C1107.79 133.832 1106.3 133.895 1104.88 134.273C1103.46 134.651 1102.13 135.335 1101 136.278C1101.73 137.563 1102.74 138.671 1103.95 139.522C1105.16 140.373 1106.53 140.946 1107.99 141.203Z" fill="#9CA3AF" fill-opacity="0.5"/>
<path d="M1195.78 156.769C1197.24 157.028 1198.73 156.962 1200.15 156.578C1201.57 156.193 1202.9 155.499 1204.02 154.544C1203.28 153.268 1202.27 152.17 1201.06 151.326C1199.85 150.482 1198.48 149.912 1197.03 149.655C1195.58 149.398 1194.1 149.461 1192.67 149.839C1191.25 150.217 1189.93 150.901 1188.8 151.845C1189.53 153.13 1190.54 154.237 1191.75 155.088C1192.95 155.939 1194.33 156.513 1195.78 156.769Z" fill="#9CA3AF" fill-opacity="0.5"/>
<path d="M1109.24 156.769C1110.69 156.513 1112.07 155.939 1113.28 155.088C1114.49 154.237 1115.49 153.13 1116.23 151.845C1115.09 150.901 1113.77 150.217 1112.35 149.839C1110.93 149.461 1109.44 149.398 1107.99 149.655C1106.54 149.912 1105.17 150.482 1103.96 151.326C1102.75 152.17 1101.74 153.268 1101 154.544C1102.13 155.499 1103.45 156.193 1104.87 156.578C1106.3 156.962 1107.79 157.028 1109.24 156.769Z" fill="#9CA3AF" fill-opacity="0.5"/>
<path d="M1197.04 141.203C1198.49 140.946 1199.87 140.373 1201.08 139.522C1202.28 138.671 1203.29 137.563 1204.02 136.278C1202.89 135.335 1201.57 134.651 1200.15 134.273C1198.72 133.895 1197.24 133.832 1195.79 134.089C1194.34 134.345 1192.97 134.916 1191.76 135.76C1190.55 136.604 1189.54 137.702 1188.8 138.978C1189.92 139.933 1191.25 140.627 1192.67 141.012C1194.09 141.396 1195.59 141.461 1197.04 141.203Z" fill="#9CA3AF" fill-opacity="0.5"/>
<path d="M1115.72 170.963C1116.99 170.222 1118.09 169.209 1118.94 167.994C1119.78 166.78 1120.35 165.393 1120.6 163.933C1119.22 163.436 1117.74 163.248 1116.28 163.382C1114.81 163.515 1113.4 163.967 1112.12 164.707C1110.85 165.446 1109.75 166.455 1108.9 167.663C1108.06 168.872 1107.48 170.251 1107.21 171.705C1108.6 172.215 1110.08 172.413 1111.55 172.285C1113.02 172.156 1114.44 171.705 1115.72 170.963Z" fill="#9CA3AF" fill-opacity="0.5"/>
<path d="M1192.92 126.146C1194.2 125.406 1195.3 124.393 1196.14 123.178C1196.99 121.963 1197.56 120.577 1197.81 119.116C1196.43 118.62 1194.95 118.432 1193.49 118.565C1192.02 118.699 1190.6 119.151 1189.33 119.89C1188.06 120.63 1186.96 121.638 1186.11 122.847C1185.26 124.055 1184.69 125.435 1184.42 126.889C1185.81 127.399 1187.29 127.597 1188.75 127.468C1190.22 127.34 1191.65 126.889 1192.92 126.146Z" fill="#9CA3AF" fill-opacity="0.5"/>
<path d="M1126.62 182.077C1127.57 180.942 1128.26 179.611 1128.64 178.179C1129.02 176.747 1129.09 175.248 1128.83 173.789C1127.36 173.799 1125.91 174.13 1124.58 174.759C1123.24 175.388 1122.07 176.301 1121.12 177.433C1120.17 178.566 1119.49 179.892 1119.1 181.319C1118.72 182.746 1118.64 184.24 1118.89 185.698C1120.36 185.701 1121.82 185.378 1123.16 184.752C1124.49 184.126 1125.68 183.213 1126.62 182.077Z" fill="#9CA3AF" fill-opacity="0.5"/>
<path d="M1183.93 113.412C1184.88 112.278 1185.57 110.947 1185.95 109.515C1186.33 108.083 1186.39 106.584 1186.13 105.125C1184.66 105.135 1183.21 105.465 1181.88 106.095C1180.55 106.724 1179.37 107.637 1178.42 108.769C1177.48 109.902 1176.79 111.228 1176.41 112.655C1176.02 114.082 1175.95 115.576 1176.19 117.034C1177.67 117.037 1179.13 116.714 1180.46 116.088C1181.8 115.462 1182.98 114.549 1183.93 113.412Z" fill="#9CA3AF" fill-opacity="0.5"/>
<path d="M1140.66 188.768C1141.17 187.376 1141.36 185.888 1141.23 184.412C1141.1 182.935 1140.65 181.505 1139.91 180.223C1138.53 180.737 1137.28 181.547 1136.25 182.596C1135.21 183.645 1134.41 184.908 1133.91 186.298C1133.41 187.687 1133.21 189.17 1133.33 190.643C1133.46 192.117 1133.9 193.545 1134.62 194.831C1136.01 194.327 1137.27 193.522 1138.31 192.475C1139.36 191.427 1140.16 190.162 1140.66 188.768Z" fill="#9CA3AF" fill-opacity="0.5"/>
<path d="M1171.15 104.538C1171.65 103.145 1171.85 101.658 1171.72 100.181C1171.59 98.7046 1171.14 97.2745 1170.4 95.9922C1169.02 96.5069 1167.77 97.3168 1166.73 98.3657C1165.7 99.4147 1164.9 100.678 1164.4 102.067C1163.89 103.457 1163.7 104.939 1163.82 106.413C1163.94 107.886 1164.38 109.315 1165.11 110.6C1166.5 110.096 1167.76 109.292 1168.8 108.244C1169.84 107.196 1170.65 105.931 1171.15 104.538Z" fill="#9CA3AF" fill-opacity="0.5"/>
</g>
<g clip-path="url(#clip3_6013_29868)">
<path d="M1312.66 138.637C1313.08 138.883 1313.55 139.032 1314.04 139.074C1314.52 139.116 1315.01 139.051 1315.47 138.883C1315.38 138.404 1315.19 137.95 1314.91 137.552C1314.62 137.154 1314.26 136.822 1313.84 136.578C1313.42 136.335 1312.95 136.185 1312.47 136.14C1311.98 136.094 1311.5 136.154 1311.04 136.316C1311.12 136.798 1311.31 137.256 1311.59 137.657C1311.87 138.058 1312.23 138.393 1312.66 138.637Z" fill="#9CA3AF" fill-opacity="0.5"/>
<path d="M1338.2 153.438C1338.62 153.683 1339.09 153.832 1339.57 153.875C1340.06 153.917 1340.55 153.852 1341.01 153.683C1340.92 153.204 1340.73 152.75 1340.44 152.353C1340.16 151.955 1339.8 151.623 1339.38 151.379C1338.96 151.135 1338.49 150.986 1338.01 150.94C1337.52 150.895 1337.04 150.955 1336.58 151.117C1336.66 151.599 1336.85 152.057 1337.13 152.458C1337.41 152.859 1337.77 153.194 1338.2 153.438Z" fill="#9CA3AF" fill-opacity="0.5"/>
<path d="M1311.3 143.612C1311.78 143.697 1312.27 143.676 1312.74 143.549C1313.21 143.422 1313.65 143.192 1314.02 142.877C1313.77 142.458 1313.44 142.097 1313.04 141.82C1312.64 141.542 1312.19 141.355 1311.71 141.27C1311.23 141.185 1310.74 141.206 1310.27 141.329C1309.8 141.453 1309.36 141.676 1308.98 141.985C1309.23 142.41 1309.56 142.776 1309.96 143.057C1310.36 143.338 1310.82 143.527 1311.3 143.612Z" fill="#9CA3AF" fill-opacity="0.5"/>
<path d="M1340.34 148.752C1340.82 148.838 1341.31 148.816 1341.78 148.689C1342.25 148.562 1342.69 148.333 1343.06 148.018C1342.82 147.598 1342.48 147.237 1342.08 146.96C1341.68 146.683 1341.23 146.495 1340.75 146.411C1340.27 146.326 1339.78 146.346 1339.31 146.47C1338.84 146.593 1338.4 146.817 1338.03 147.126C1338.27 147.551 1338.6 147.916 1339 148.197C1339.4 148.478 1339.86 148.668 1340.34 148.752Z" fill="#9CA3AF" fill-opacity="0.5"/>
<path d="M1311.71 148.752C1312.19 148.668 1312.65 148.478 1313.05 148.197C1313.45 147.916 1313.78 147.551 1314.02 147.126C1313.65 146.817 1313.21 146.593 1312.74 146.47C1312.27 146.346 1311.78 146.326 1311.3 146.411C1310.82 146.495 1310.37 146.683 1309.97 146.96C1309.57 147.237 1309.23 147.598 1308.98 148.018C1309.36 148.333 1309.79 148.562 1310.27 148.689C1310.74 148.816 1311.23 148.838 1311.71 148.752Z" fill="#9CA3AF" fill-opacity="0.5"/>
<path d="M1340.75 143.612C1341.23 143.527 1341.69 143.338 1342.09 143.057C1342.49 142.776 1342.82 142.41 1343.06 141.985C1342.69 141.676 1342.25 141.452 1341.78 141.329C1341.31 141.206 1340.82 141.186 1340.34 141.27C1339.86 141.355 1339.41 141.542 1339.01 141.82C1338.61 142.097 1338.28 142.458 1338.03 142.877C1338.4 143.192 1338.84 143.422 1339.31 143.549C1339.78 143.676 1340.27 143.697 1340.75 143.612Z" fill="#9CA3AF" fill-opacity="0.5"/>
<path d="M1313.85 153.438C1314.27 153.194 1314.64 152.859 1314.92 152.458C1315.2 152.057 1315.38 151.599 1315.47 151.117C1315.01 150.955 1314.52 150.895 1314.04 150.94C1313.56 150.986 1313.09 151.135 1312.67 151.379C1312.25 151.623 1311.88 151.955 1311.6 152.353C1311.32 152.75 1311.13 153.204 1311.04 153.683C1311.5 153.852 1311.99 153.917 1312.47 153.875C1312.96 153.832 1313.43 153.683 1313.85 153.438Z" fill="#9CA3AF" fill-opacity="0.5"/>
<path d="M1339.39 138.637C1339.81 138.393 1340.18 138.058 1340.46 137.657C1340.74 137.256 1340.92 136.798 1341.01 136.316C1340.55 136.154 1340.06 136.094 1339.58 136.14C1339.09 136.185 1338.63 136.335 1338.21 136.578C1337.78 136.822 1337.42 137.154 1337.14 137.552C1336.86 137.95 1336.67 138.404 1336.58 138.883C1337.04 139.051 1337.53 139.116 1338.01 139.074C1338.5 139.032 1338.97 138.883 1339.39 138.637Z" fill="#9CA3AF" fill-opacity="0.5"/>
<path d="M1317.46 157.108C1317.78 156.733 1318 156.294 1318.13 155.821C1318.26 155.348 1318.28 154.853 1318.19 154.371C1317.71 154.377 1317.23 154.488 1316.79 154.696C1316.35 154.905 1315.96 155.206 1315.65 155.58C1315.34 155.953 1315.11 156.39 1314.98 156.86C1314.85 157.33 1314.83 157.823 1314.9 158.304C1315.39 158.305 1315.87 158.198 1316.32 157.991C1316.76 157.785 1317.15 157.483 1317.46 157.108Z" fill="#9CA3AF" fill-opacity="0.5"/>
<path d="M1336.42 134.432C1336.73 134.057 1336.96 133.618 1337.08 133.145C1337.21 132.672 1337.23 132.177 1337.14 131.695C1336.66 131.701 1336.18 131.812 1335.74 132.02C1335.3 132.229 1334.91 132.53 1334.6 132.904C1334.29 133.277 1334.06 133.714 1333.93 134.184C1333.8 134.654 1333.78 135.147 1333.86 135.628C1334.34 135.629 1334.83 135.522 1335.27 135.316C1335.71 135.109 1336.1 134.807 1336.42 134.432Z" fill="#9CA3AF" fill-opacity="0.5"/>
<path d="M1322.1 159.318C1322.27 158.858 1322.33 158.367 1322.29 157.879C1322.25 157.392 1322.1 156.92 1321.85 156.496C1321.4 156.668 1320.99 156.937 1320.65 157.283C1320.3 157.63 1320.04 158.047 1319.88 158.505C1319.71 158.963 1319.64 159.452 1319.68 159.938C1319.72 160.424 1319.87 160.895 1320.1 161.32C1320.56 161.154 1320.98 160.888 1321.32 160.542C1321.67 160.196 1321.93 159.778 1322.1 159.318Z" fill="#9CA3AF" fill-opacity="0.5"/>
<path d="M1332.19 131.502C1332.36 131.042 1332.42 130.551 1332.38 130.063C1332.34 129.575 1332.19 129.103 1331.94 128.68C1331.49 128.852 1331.08 129.12 1330.74 129.467C1330.39 129.814 1330.13 130.23 1329.97 130.688C1329.8 131.147 1329.73 131.635 1329.77 132.121C1329.81 132.607 1329.96 133.079 1330.19 133.504C1330.65 133.337 1331.07 133.072 1331.41 132.726C1331.76 132.38 1332.02 131.962 1332.19 131.502Z" fill="#9CA3AF" fill-opacity="0.5"/>
<path d="M1327.22 159.801C1327.22 159.312 1327.11 158.828 1326.9 158.384C1326.7 157.941 1326.4 157.548 1326.02 157.234C1325.65 157.552 1325.36 157.946 1325.16 158.389C1324.95 158.832 1324.85 159.314 1324.85 159.801C1324.85 160.289 1324.95 160.77 1325.16 161.213C1325.36 161.656 1325.65 162.05 1326.02 162.368C1326.4 162.054 1326.7 161.661 1326.9 161.218C1327.11 160.774 1327.22 160.291 1327.22 159.801Z" fill="#9CA3AF" fill-opacity="0.5"/>
<path d="M1327.22 130.2C1327.22 129.71 1327.11 129.226 1326.9 128.783C1326.7 128.339 1326.4 127.947 1326.02 127.633C1325.65 127.95 1325.36 128.344 1325.16 128.787C1324.95 129.23 1324.85 129.712 1324.85 130.2C1324.85 130.687 1324.95 131.169 1325.16 131.612C1325.36 132.055 1325.65 132.449 1326.02 132.766C1326.4 132.453 1326.7 132.06 1326.9 131.616C1327.11 131.173 1327.22 130.689 1327.22 130.2Z" fill="#9CA3AF" fill-opacity="0.5"/>
<path d="M1332.19 158.498C1332.02 158.038 1331.76 157.62 1331.41 157.274C1331.07 156.928 1330.65 156.663 1330.19 156.496C1329.96 156.921 1329.81 157.393 1329.77 157.879C1329.73 158.364 1329.8 158.853 1329.97 159.311C1330.13 159.769 1330.39 160.186 1330.74 160.533C1331.08 160.88 1331.49 161.148 1331.94 161.32C1332.19 160.897 1332.34 160.424 1332.38 159.937C1332.42 159.449 1332.36 158.958 1332.19 158.498Z" fill="#9CA3AF" fill-opacity="0.5"/>
<path d="M1322.1 130.682C1321.93 130.222 1321.67 129.804 1321.32 129.458C1320.98 129.112 1320.56 128.846 1320.1 128.68C1319.87 129.105 1319.72 129.576 1319.68 130.062C1319.64 130.548 1319.71 131.037 1319.88 131.495C1320.04 131.953 1320.3 132.37 1320.65 132.716C1320.99 133.063 1321.4 133.332 1321.85 133.504C1322.1 133.08 1322.25 132.608 1322.29 132.12C1322.33 131.633 1322.27 131.142 1322.1 130.682Z" fill="#9CA3AF" fill-opacity="0.5"/>
<path d="M1336.42 155.567C1336.1 155.192 1335.71 154.89 1335.27 154.683C1334.83 154.477 1334.34 154.37 1333.86 154.371C1333.78 154.852 1333.8 155.345 1333.93 155.815C1334.06 156.285 1334.29 156.722 1334.6 157.095C1334.91 157.469 1335.3 157.77 1335.74 157.979C1336.18 158.187 1336.66 158.298 1337.14 158.304C1337.23 157.822 1337.21 157.327 1337.08 156.854C1336.96 156.381 1336.73 155.942 1336.42 155.567Z" fill="#9CA3AF" fill-opacity="0.5"/>
<path d="M1317.46 132.891C1317.15 132.516 1316.76 132.214 1316.32 132.008C1315.87 131.801 1315.39 131.694 1314.9 131.695C1314.83 132.176 1314.85 132.669 1314.98 133.139C1315.11 133.609 1315.34 134.046 1315.65 134.419C1315.96 134.793 1316.35 135.094 1316.79 135.303C1317.23 135.511 1317.71 135.622 1318.19 135.628C1318.28 135.146 1318.26 134.651 1318.13 134.178C1318 133.705 1317.78 133.266 1317.46 132.891Z" fill="#9CA3AF" fill-opacity="0.5"/>
<path d="M1311.33 133.736C1311.78 134.146 1312.32 134.451 1312.9 134.63C1313.48 134.808 1314.1 134.856 1314.7 134.77C1314.72 134.161 1314.6 133.556 1314.36 132.996C1314.12 132.436 1313.76 131.936 1313.31 131.528C1312.86 131.12 1312.33 130.815 1311.75 130.633C1311.17 130.452 1310.55 130.398 1309.95 130.476C1309.93 131.088 1310.04 131.697 1310.28 132.26C1310.52 132.823 1310.88 133.327 1311.33 133.736Z" fill="#9CA3AF" fill-opacity="0.5"/>
<path d="M1338.72 158.494C1339.18 158.904 1339.71 159.209 1340.3 159.388C1340.88 159.566 1341.49 159.614 1342.1 159.528C1342.11 158.918 1341.99 158.313 1341.75 157.754C1341.51 157.194 1341.16 156.693 1340.7 156.286C1340.25 155.878 1339.72 155.573 1339.14 155.391C1338.56 155.21 1337.95 155.156 1337.35 155.234C1337.32 155.845 1337.44 156.454 1337.67 157.018C1337.91 157.581 1338.27 158.085 1338.72 158.494Z" fill="#9CA3AF" fill-opacity="0.5"/>
<path d="M1308.38 139.462C1308.94 139.692 1309.55 139.794 1310.16 139.762C1310.77 139.729 1311.36 139.563 1311.9 139.275C1311.71 138.697 1311.39 138.169 1310.97 137.726C1310.56 137.282 1310.05 136.935 1309.49 136.706C1308.92 136.478 1308.32 136.375 1307.71 136.403C1307.11 136.431 1306.51 136.591 1305.97 136.871C1306.16 137.453 1306.47 137.987 1306.89 138.435C1307.3 138.883 1307.81 139.233 1308.38 139.462Z" fill="#9CA3AF" fill-opacity="0.5"/>
<path d="M1342.55 153.321C1343.12 153.551 1343.73 153.653 1344.34 153.621C1344.94 153.589 1345.54 153.422 1346.08 153.134C1345.88 152.557 1345.57 152.028 1345.15 151.585C1344.73 151.142 1344.23 150.794 1343.66 150.566C1343.1 150.338 1342.49 150.234 1341.89 150.262C1341.28 150.291 1340.69 150.45 1340.15 150.73C1340.34 151.313 1340.65 151.846 1341.06 152.294C1341.48 152.742 1341.99 153.093 1342.55 153.321Z" fill="#9CA3AF" fill-opacity="0.5"/>
<path d="M1307.55 145.852C1308.16 145.874 1308.77 145.761 1309.33 145.521C1309.89 145.282 1310.39 144.922 1310.8 144.466C1310.42 143.99 1309.94 143.602 1309.4 143.329C1308.86 143.055 1308.26 142.903 1307.66 142.881C1307.05 142.86 1306.45 142.971 1305.88 143.206C1305.32 143.441 1304.82 143.794 1304.41 144.242C1304.78 144.725 1305.26 145.12 1305.8 145.398C1306.35 145.676 1306.94 145.831 1307.55 145.852Z" fill="#9CA3AF" fill-opacity="0.5"/>
<path d="M1344.39 147.145C1345 147.167 1345.61 147.054 1346.17 146.814C1346.73 146.575 1347.23 146.215 1347.64 145.759C1347.26 145.283 1346.78 144.895 1346.24 144.622C1345.7 144.348 1345.1 144.196 1344.5 144.174C1343.89 144.153 1343.28 144.264 1342.72 144.499C1342.16 144.733 1341.66 145.087 1341.25 145.535C1341.62 146.018 1342.1 146.413 1342.64 146.691C1343.19 146.969 1343.78 147.124 1344.39 147.145Z" fill="#9CA3AF" fill-opacity="0.5"/>
<path d="M1308.96 152.143C1309.54 151.954 1310.07 151.64 1310.52 151.223C1310.96 150.805 1311.31 150.294 1311.54 149.726C1311.02 149.409 1310.44 149.209 1309.83 149.138C1309.23 149.067 1308.62 149.128 1308.04 149.316C1307.47 149.505 1306.94 149.816 1306.49 150.229C1306.04 150.642 1305.69 151.147 1305.46 151.709C1305.97 152.035 1306.55 152.242 1307.16 152.317C1307.76 152.392 1308.38 152.333 1308.96 152.143Z" fill="#9CA3AF" fill-opacity="0.5"/>
<path d="M1344.02 140.709C1344.6 140.521 1345.13 140.207 1345.57 139.789C1346.02 139.371 1346.37 138.861 1346.6 138.293C1346.08 137.976 1345.5 137.775 1344.89 137.704C1344.29 137.634 1343.68 137.694 1343.1 137.883C1342.52 138.071 1341.99 138.382 1341.55 138.795C1341.1 139.208 1340.75 139.713 1340.52 140.276C1341.03 140.601 1341.61 140.809 1342.22 140.883C1342.82 140.958 1343.44 140.899 1344.02 140.709Z" fill="#9CA3AF" fill-opacity="0.5"/>
<path d="M1312.42 157.571C1312.9 157.194 1313.29 156.717 1313.57 156.171C1313.84 155.626 1314 155.026 1314.02 154.415C1313.42 154.295 1312.81 154.305 1312.22 154.446C1311.63 154.587 1311.07 154.854 1310.6 155.229C1310.12 155.604 1309.73 156.078 1309.45 156.62C1309.17 157.161 1309.01 157.757 1308.98 158.365C1309.58 158.494 1310.19 158.489 1310.79 158.352C1311.38 158.214 1311.94 157.948 1312.42 157.571Z" fill="#9CA3AF" fill-opacity="0.5"/>
<path d="M1341.47 134.793C1341.95 134.417 1342.34 133.939 1342.62 133.394C1342.9 132.848 1343.05 132.249 1343.07 131.637C1342.47 131.517 1341.86 131.528 1341.27 131.669C1340.68 131.809 1340.12 132.076 1339.65 132.451C1339.17 132.827 1338.78 133.301 1338.5 133.842C1338.22 134.384 1338.06 134.979 1338.03 135.588C1338.63 135.716 1339.24 135.712 1339.84 135.574C1340.43 135.437 1340.99 135.17 1341.47 134.793Z" fill="#9CA3AF" fill-opacity="0.5"/>
<path d="M1317.52 161.484C1317.85 160.965 1318.05 160.381 1318.13 159.774C1318.2 159.167 1318.14 158.55 1317.95 157.969C1317.35 158.061 1316.78 158.281 1316.27 158.616C1315.76 158.951 1315.33 159.392 1315.01 159.909C1314.69 160.426 1314.48 161.006 1314.41 161.61C1314.33 162.215 1314.38 162.829 1314.56 163.411C1315.17 163.327 1315.74 163.111 1316.26 162.778C1316.77 162.445 1317.2 162.003 1317.52 161.484Z" fill="#9CA3AF" fill-opacity="0.5"/>
<path d="M1337.06 130.105C1337.38 129.586 1337.59 129.003 1337.66 128.395C1337.73 127.788 1337.68 127.171 1337.49 126.59C1336.89 126.682 1336.31 126.903 1335.8 127.237C1335.3 127.572 1334.87 128.013 1334.55 128.53C1334.22 129.047 1334.02 129.627 1333.94 130.232C1333.86 130.836 1333.92 131.45 1334.1 132.032C1334.7 131.948 1335.28 131.732 1335.79 131.399C1336.3 131.066 1336.73 130.624 1337.06 130.105Z" fill="#9CA3AF" fill-opacity="0.5"/>
<path d="M1323.65 163.411C1323.78 162.812 1323.77 162.193 1323.64 161.597C1323.5 161.001 1323.23 160.442 1322.86 159.961C1322.32 160.253 1321.86 160.658 1321.5 161.146C1321.14 161.635 1320.88 162.197 1320.76 162.793C1320.63 163.389 1320.63 164.005 1320.77 164.6C1320.9 165.195 1321.16 165.753 1321.53 166.238C1322.07 165.952 1322.54 165.55 1322.9 165.061C1323.27 164.573 1323.53 164.01 1323.65 163.411Z" fill="#9CA3AF" fill-opacity="0.5"/>
<path d="M1331.32 127.216C1331.44 126.617 1331.44 125.998 1331.3 125.402C1331.16 124.806 1330.9 124.247 1330.52 123.766C1329.99 124.058 1329.52 124.462 1329.16 124.951C1328.8 125.44 1328.55 126.002 1328.42 126.598C1328.29 127.194 1328.3 127.81 1328.43 128.405C1328.56 128.999 1328.82 129.558 1329.19 130.042C1329.73 129.756 1330.2 129.355 1330.57 128.866C1330.93 128.378 1331.19 127.814 1331.32 127.216Z" fill="#9CA3AF" fill-opacity="0.5"/>
<path d="M1330.07 163.113C1329.98 162.507 1329.77 161.927 1329.43 161.414C1329.1 160.901 1328.66 160.468 1328.14 160.145C1327.74 160.602 1327.44 161.141 1327.27 161.725C1327.1 162.309 1327.05 162.923 1327.13 163.527C1327.22 164.13 1327.43 164.708 1327.76 165.221C1328.09 165.734 1328.52 166.17 1329.03 166.499C1329.44 166.045 1329.75 165.507 1329.93 164.922C1330.1 164.336 1330.15 163.719 1330.07 163.113Z" fill="#9CA3AF" fill-opacity="0.5"/>
<path d="M1324.94 126.473C1324.85 125.867 1324.64 125.287 1324.31 124.774C1323.97 124.261 1323.53 123.827 1323.01 123.504C1322.61 123.961 1322.32 124.501 1322.14 125.084C1321.97 125.668 1321.92 126.283 1322.01 126.886C1322.09 127.49 1322.3 128.068 1322.63 128.581C1322.96 129.094 1323.39 129.53 1323.9 129.858C1324.31 129.405 1324.62 128.866 1324.8 128.281C1324.98 127.696 1325.02 127.079 1324.94 126.473Z" fill="#9CA3AF" fill-opacity="0.5"/>
<path d="M1335.99 160.633C1335.71 160.093 1335.31 159.622 1334.82 159.254C1334.33 158.886 1333.77 158.63 1333.18 158.504C1332.95 159.072 1332.86 159.68 1332.89 160.289C1332.93 160.897 1333.09 161.491 1333.38 162.029C1333.66 162.567 1334.06 163.037 1334.55 163.406C1335.03 163.776 1335.58 164.036 1336.18 164.17C1336.41 163.603 1336.51 162.992 1336.48 162.381C1336.45 161.77 1336.28 161.173 1335.99 160.633Z" fill="#9CA3AF" fill-opacity="0.5"/>
<path d="M1318.69 127.962C1318.4 127.421 1318 126.95 1317.52 126.582C1317.03 126.214 1316.47 125.958 1315.87 125.832C1315.65 126.4 1315.55 127.008 1315.59 127.617C1315.62 128.225 1315.79 128.819 1316.08 129.357C1316.36 129.895 1316.76 130.365 1317.24 130.734C1317.72 131.104 1318.28 131.364 1318.87 131.498C1319.1 130.931 1319.2 130.32 1319.17 129.709C1319.14 129.098 1318.98 128.502 1318.69 127.962Z" fill="#9CA3AF" fill-opacity="0.5"/>
<path d="M1310.97 127.392C1311.42 128.012 1312 128.525 1312.66 128.895C1313.33 129.266 1314.07 129.484 1314.83 129.536C1315.01 128.795 1315.02 128.025 1314.87 127.278C1314.72 126.531 1314.41 125.825 1313.97 125.209C1313.52 124.593 1312.95 124.08 1312.29 123.707C1311.62 123.334 1310.89 123.109 1310.13 123.047C1309.95 123.789 1309.93 124.562 1310.07 125.313C1310.22 126.064 1310.52 126.774 1310.97 127.392Z" fill="#9CA3AF" fill-opacity="0.5"/>
<path d="M1338.05 164.81C1338.5 165.43 1339.08 165.943 1339.75 166.313C1340.41 166.683 1341.15 166.902 1341.91 166.954C1342.09 166.213 1342.1 165.443 1341.95 164.696C1341.8 163.949 1341.49 163.243 1341.05 162.627C1340.6 162.011 1340.03 161.498 1339.37 161.125C1338.71 160.752 1337.97 160.527 1337.22 160.465C1337.03 161.207 1337.01 161.98 1337.15 162.731C1337.3 163.482 1337.61 164.192 1338.05 164.81Z" fill="#9CA3AF" fill-opacity="0.5"/>
<path d="M1305.88 133.62C1306.51 134.049 1307.23 134.333 1307.98 134.452C1308.73 134.571 1309.5 134.523 1310.23 134.31C1310.15 133.554 1309.9 132.825 1309.5 132.175C1309.11 131.524 1308.58 130.967 1307.95 130.541C1307.32 130.115 1306.61 129.83 1305.86 129.707C1305.11 129.583 1304.34 129.624 1303.61 129.825C1303.69 130.586 1303.93 131.32 1304.32 131.976C1304.72 132.632 1305.25 133.193 1305.88 133.62Z" fill="#9CA3AF" fill-opacity="0.5"/>
<path d="M1344.08 159.484C1344.71 159.912 1345.43 160.196 1346.18 160.315C1346.94 160.434 1347.71 160.386 1348.44 160.174C1348.35 159.417 1348.1 158.689 1347.71 158.038C1347.31 157.387 1346.78 156.83 1346.15 156.404C1345.52 155.978 1344.81 155.693 1344.06 155.57C1343.31 155.446 1342.54 155.487 1341.81 155.688C1341.89 156.449 1342.13 157.183 1342.53 157.839C1342.92 158.495 1343.45 159.057 1344.08 159.484Z" fill="#9CA3AF" fill-opacity="0.5"/>
<path d="M1303.22 141.223C1303.96 141.408 1304.73 141.429 1305.48 141.282C1306.22 141.136 1306.93 140.826 1307.55 140.376C1307.21 139.695 1306.72 139.096 1306.13 138.62C1305.54 138.144 1304.85 137.802 1304.11 137.618C1303.38 137.434 1302.61 137.411 1301.86 137.552C1301.12 137.693 1300.41 137.994 1299.79 138.435C1300.13 139.123 1300.6 139.73 1301.2 140.211C1301.79 140.693 1302.48 141.038 1303.22 141.223Z" fill="#9CA3AF" fill-opacity="0.5"/>
<path d="M1347.93 152.41C1348.66 152.596 1349.44 152.616 1350.18 152.47C1350.93 152.323 1351.64 152.014 1352.25 151.563C1351.91 150.882 1351.43 150.283 1350.84 149.808C1350.25 149.332 1349.56 148.99 1348.82 148.805C1348.08 148.621 1347.32 148.599 1346.57 148.74C1345.83 148.881 1345.12 149.182 1344.5 149.623C1344.83 150.311 1345.31 150.917 1345.9 151.399C1346.5 151.88 1347.19 152.226 1347.93 152.41Z" fill="#9CA3AF" fill-opacity="0.5"/>
<path d="M1303.31 149.278C1304.06 149.199 1304.79 148.953 1305.45 148.559C1306.1 148.165 1306.66 147.631 1307.08 146.996C1306.53 146.474 1305.87 146.077 1305.16 145.833C1304.44 145.589 1303.67 145.504 1302.92 145.584C1302.16 145.663 1301.44 145.906 1300.78 146.294C1300.13 146.683 1299.57 147.208 1299.14 147.835C1299.68 148.367 1300.34 148.773 1301.06 149.022C1301.78 149.271 1302.55 149.359 1303.31 149.278Z" fill="#9CA3AF" fill-opacity="0.5"/>
<path d="M1349.13 144.446C1349.89 144.367 1350.62 144.121 1351.27 143.727C1351.92 143.333 1352.48 142.799 1352.91 142.164C1352.36 141.642 1351.7 141.245 1350.98 141.001C1350.26 140.757 1349.5 140.672 1348.74 140.752C1347.99 140.831 1347.26 141.074 1346.61 141.462C1345.95 141.851 1345.39 142.376 1344.96 143.003C1345.51 143.535 1346.17 143.94 1346.89 144.19C1347.61 144.439 1348.37 144.527 1349.13 144.446Z" fill="#9CA3AF" fill-opacity="0.5"/>
<path d="M1306.14 156.819C1306.82 156.485 1307.42 156.003 1307.9 155.408C1308.38 154.814 1308.73 154.12 1308.91 153.378C1308.21 153.076 1307.46 152.929 1306.7 152.947C1305.94 152.964 1305.2 153.146 1304.51 153.48C1303.83 153.814 1303.23 154.292 1302.75 154.881C1302.27 155.471 1301.92 156.157 1301.73 156.894C1302.42 157.207 1303.18 157.362 1303.94 157.349C1304.7 157.336 1305.45 157.155 1306.14 156.819Z" fill="#9CA3AF" fill-opacity="0.5"/>
<path d="M1347.55 136.546C1348.24 136.211 1348.84 135.73 1349.32 135.135C1349.8 134.54 1350.14 133.847 1350.32 133.104C1349.63 132.803 1348.87 132.656 1348.11 132.673C1347.36 132.691 1346.61 132.873 1345.93 133.207C1345.25 133.541 1344.64 134.019 1344.16 134.608C1343.68 135.197 1343.33 135.884 1343.14 136.621C1343.84 136.933 1344.59 137.089 1345.35 137.076C1346.12 137.063 1346.87 136.882 1347.55 136.546Z" fill="#9CA3AF" fill-opacity="0.5"/>
<path d="M1311.36 162.937C1311.89 162.387 1312.29 161.728 1312.54 161.004C1312.79 160.281 1312.87 159.512 1312.79 158.751C1312.04 158.707 1311.28 158.827 1310.57 159.104C1309.86 159.381 1309.22 159.809 1308.7 160.357C1308.17 160.905 1307.77 161.56 1307.52 162.279C1307.26 162.998 1307.17 163.763 1307.24 164.521C1308 164.576 1308.76 164.463 1309.48 164.189C1310.19 163.915 1310.83 163.488 1311.36 162.937Z" fill="#9CA3AF" fill-opacity="0.5"/>
<path d="M1343.37 129.664C1343.9 129.114 1344.3 128.454 1344.55 127.731C1344.8 127.007 1344.89 126.238 1344.8 125.478C1344.05 125.433 1343.29 125.554 1342.58 125.831C1341.87 126.108 1341.24 126.535 1340.71 127.083C1340.18 127.631 1339.78 128.287 1339.53 129.006C1339.28 129.725 1339.18 130.489 1339.25 131.248C1340.01 131.303 1340.78 131.189 1341.49 130.915C1342.2 130.642 1342.84 130.214 1343.37 129.664Z" fill="#9CA3AF" fill-opacity="0.5"/>
<path d="M1318.36 166.887C1318.67 166.188 1318.82 165.43 1318.81 164.665C1318.79 163.9 1318.61 163.148 1318.28 162.461C1317.55 162.679 1316.88 163.053 1316.31 163.556C1315.74 164.059 1315.28 164.68 1314.97 165.376C1314.67 166.071 1314.51 166.826 1314.52 167.588C1314.53 168.349 1314.7 169.1 1315.03 169.789C1315.76 169.579 1316.44 169.211 1317.01 168.709C1317.59 168.208 1318.05 167.586 1318.36 166.887Z" fill="#9CA3AF" fill-opacity="0.5"/>
<path d="M1337.1 124.637C1337.41 123.938 1337.56 123.18 1337.55 122.415C1337.54 121.65 1337.35 120.898 1337.02 120.211C1336.29 120.429 1335.62 120.803 1335.05 121.306C1334.48 121.809 1334.03 122.43 1333.72 123.126C1333.41 123.821 1333.25 124.576 1333.26 125.338C1333.27 126.099 1333.44 126.85 1333.77 127.539C1334.5 127.329 1335.18 126.961 1335.75 126.459C1336.33 125.958 1336.79 125.336 1337.1 124.637Z" fill="#9CA3AF" fill-opacity="0.5"/>
<path d="M1326.28 168.198C1326.33 167.435 1326.22 166.669 1325.95 165.955C1325.67 165.242 1325.25 164.597 1324.7 164.066C1324.09 164.521 1323.58 165.103 1323.22 165.771C1322.86 166.439 1322.64 167.179 1322.59 167.939C1322.53 168.699 1322.65 169.461 1322.91 170.174C1323.18 170.886 1323.6 171.533 1324.14 172.068C1324.76 171.62 1325.27 171.041 1325.64 170.372C1326.01 169.703 1326.23 168.961 1326.28 168.198Z" fill="#9CA3AF" fill-opacity="0.5"/>
<path d="M1329.49 122.061C1329.54 121.298 1329.43 120.533 1329.16 119.819C1328.88 119.105 1328.46 118.46 1327.91 117.93C1327.3 118.385 1326.79 118.966 1326.43 119.634C1326.07 120.303 1325.85 121.042 1325.8 121.802C1325.75 122.562 1325.86 123.324 1326.12 124.037C1326.39 124.75 1326.81 125.396 1327.35 125.931C1327.97 125.483 1328.48 124.904 1328.85 124.235C1329.22 123.566 1329.44 122.824 1329.49 122.061Z" fill="#9CA3AF" fill-opacity="0.5"/>
<path d="M1334.17 166.714C1333.96 165.979 1333.59 165.298 1333.09 164.721C1332.59 164.144 1331.97 163.685 1331.27 163.375C1330.86 164.011 1330.58 164.731 1330.47 165.484C1330.35 166.237 1330.4 167.006 1330.61 167.738C1330.82 168.47 1331.18 169.148 1331.68 169.726C1332.17 170.304 1332.79 170.768 1333.48 171.086C1333.9 170.452 1334.19 169.732 1334.31 168.977C1334.43 168.222 1334.38 167.449 1334.17 166.714Z" fill="#9CA3AF" fill-opacity="0.5"/>
<path d="M1321.46 122.253C1321.26 121.518 1320.89 120.837 1320.39 120.26C1319.89 119.683 1319.27 119.224 1318.57 118.914C1318.15 119.55 1317.88 120.27 1317.76 121.023C1317.65 121.776 1317.7 122.545 1317.91 123.277C1318.12 124.009 1318.48 124.688 1318.98 125.265C1319.47 125.843 1320.08 126.307 1320.77 126.625C1321.2 125.991 1321.48 125.272 1321.6 124.516C1321.72 123.761 1321.68 122.988 1321.46 122.253Z" fill="#9CA3AF" fill-opacity="0.5"/>
<path d="M1312.18 119.548C1312.56 120.422 1313.14 121.199 1313.86 121.826C1314.58 122.453 1315.42 122.914 1316.34 123.175C1316.75 122.315 1316.96 121.376 1316.97 120.424C1316.98 119.472 1316.79 118.529 1316.4 117.659C1316.02 116.789 1315.45 116.013 1314.74 115.384C1314.03 114.756 1313.19 114.289 1312.28 114.016C1311.86 114.874 1311.63 115.815 1311.61 116.771C1311.6 117.727 1311.79 118.675 1312.18 119.548Z" fill="#9CA3AF" fill-opacity="0.5"/>
<path d="M1335.6 172.36C1335.99 173.234 1336.56 174.012 1337.28 174.639C1338 175.266 1338.85 175.726 1339.77 175.988C1340.17 175.127 1340.39 174.189 1340.4 173.237C1340.41 172.285 1340.22 171.341 1339.83 170.471C1339.44 169.602 1338.88 168.826 1338.16 168.197C1337.45 167.568 1336.61 167.101 1335.7 166.828C1335.28 167.687 1335.06 168.627 1335.04 169.583C1335.02 170.539 1335.22 171.487 1335.6 172.36Z" fill="#9CA3AF" fill-opacity="0.5"/>
<path d="M1304.34 125.834C1305 126.522 1305.81 127.056 1306.69 127.398C1307.58 127.74 1308.54 127.882 1309.49 127.814C1309.58 126.866 1309.46 125.91 1309.15 125.011C1308.83 124.113 1308.33 123.293 1307.67 122.608C1307.01 121.923 1306.21 121.389 1305.33 121.043C1304.44 120.696 1303.5 120.546 1302.55 120.601C1302.45 121.552 1302.56 122.513 1302.86 123.417C1303.17 124.322 1303.68 125.146 1304.34 125.834Z" fill="#9CA3AF" fill-opacity="0.5"/>
<path d="M1344.35 167.42C1345.01 168.108 1345.81 168.642 1346.7 168.984C1347.59 169.326 1348.55 169.468 1349.5 169.4C1349.58 168.451 1349.47 167.495 1349.15 166.597C1348.84 165.698 1348.34 164.879 1347.68 164.194C1347.02 163.509 1346.22 162.975 1345.33 162.629C1344.45 162.282 1343.5 162.132 1342.56 162.187C1342.46 163.138 1342.56 164.099 1342.87 165.003C1343.18 165.908 1343.69 166.732 1344.35 167.42Z" fill="#9CA3AF" fill-opacity="0.5"/>
<path d="M1299.12 134.432C1299.97 134.852 1300.91 135.078 1301.86 135.094C1302.81 135.111 1303.76 134.917 1304.63 134.526C1304.39 133.605 1303.95 132.747 1303.35 132.01C1302.75 131.274 1302 130.676 1301.14 130.259C1300.29 129.841 1299.36 129.614 1298.41 129.592C1297.46 129.57 1296.52 129.753 1295.65 130.131C1295.88 131.059 1296.31 131.925 1296.91 132.669C1297.5 133.412 1298.26 134.014 1299.12 134.432Z" fill="#9CA3AF" fill-opacity="0.5"/>
<path d="M1350.88 159.776C1351.74 160.196 1352.68 160.422 1353.63 160.438C1354.58 160.454 1355.53 160.26 1356.4 159.87C1356.16 158.948 1355.72 158.09 1355.12 157.354C1354.52 156.617 1353.77 156.02 1352.91 155.602C1352.06 155.185 1351.13 154.958 1350.18 154.935C1349.23 154.913 1348.29 155.097 1347.42 155.474C1347.65 156.402 1348.08 157.269 1348.67 158.012C1349.27 158.756 1350.03 159.358 1350.88 159.776Z" fill="#9CA3AF" fill-opacity="0.5"/>
<path d="M1297.14 144.307C1298.08 144.408 1299.04 144.298 1299.94 143.986C1300.84 143.675 1301.66 143.168 1302.35 142.503C1301.81 141.719 1301.11 141.062 1300.29 140.577C1299.48 140.091 1298.56 139.788 1297.62 139.689C1296.68 139.589 1295.72 139.695 1294.83 140C1293.93 140.305 1293.1 140.801 1292.41 141.454C1292.95 142.248 1293.64 142.915 1294.46 143.408C1295.28 143.901 1296.19 144.208 1297.14 144.307Z" fill="#9CA3AF" fill-opacity="0.5"/>
<path d="M1354.42 150.35C1355.37 150.451 1356.32 150.341 1357.22 150.029C1358.12 149.718 1358.95 149.211 1359.63 148.545C1359.09 147.762 1358.39 147.105 1357.57 146.62C1356.76 146.134 1355.85 145.831 1354.9 145.732C1353.96 145.632 1353.01 145.738 1352.11 146.043C1351.21 146.348 1350.39 146.844 1349.7 147.497C1350.23 148.291 1350.92 148.958 1351.74 149.451C1352.56 149.944 1353.47 150.251 1354.42 150.35Z" fill="#9CA3AF" fill-opacity="0.5"/>
<path d="M1298.64 154.265C1299.57 154.034 1300.43 153.603 1301.17 153C1301.91 152.398 1302.51 151.64 1302.93 150.78C1302.15 150.229 1301.27 149.853 1300.34 149.677C1299.41 149.5 1298.45 149.528 1297.53 149.759C1296.61 149.989 1295.75 150.416 1295 151.011C1294.26 151.606 1293.66 152.355 1293.23 153.206C1294 153.769 1294.89 154.156 1295.82 154.339C1296.76 154.522 1297.72 154.497 1298.64 154.265Z" fill="#9CA3AF" fill-opacity="0.5"/>
<path d="M1354.53 140.28C1355.46 140.05 1356.32 139.618 1357.06 139.016C1357.8 138.414 1358.4 137.656 1358.81 136.796C1358.04 136.245 1357.16 135.869 1356.22 135.692C1355.29 135.516 1354.33 135.544 1353.41 135.774C1352.49 136.005 1351.63 136.432 1350.89 137.027C1350.15 137.622 1349.55 138.37 1349.12 139.221C1349.89 139.785 1350.77 140.172 1351.71 140.355C1352.64 140.538 1353.61 140.512 1354.53 140.28Z" fill="#9CA3AF" fill-opacity="0.5"/>
<path d="M1303.45 163.109C1304.24 162.575 1304.91 161.873 1305.4 161.053C1305.89 160.233 1306.19 159.315 1306.29 158.364C1305.37 158.112 1304.42 158.062 1303.48 158.216C1302.54 158.371 1301.65 158.726 1300.87 159.259C1300.08 159.791 1299.42 160.488 1298.92 161.301C1298.43 162.115 1298.12 163.025 1298.01 163.971C1298.92 164.236 1299.88 164.297 1300.83 164.148C1301.77 163.999 1302.66 163.644 1303.45 163.109Z" fill="#9CA3AF" fill-opacity="0.5"/>
<path d="M1351.2 130.777C1351.99 130.243 1352.66 129.541 1353.15 128.721C1353.64 127.901 1353.94 126.983 1354.04 126.032C1353.12 125.78 1352.17 125.73 1351.23 125.884C1350.29 126.039 1349.4 126.394 1348.62 126.927C1347.83 127.459 1347.17 128.156 1346.67 128.969C1346.18 129.783 1345.87 130.693 1345.76 131.639C1346.67 131.904 1347.63 131.965 1348.58 131.816C1349.52 131.667 1350.41 131.312 1351.2 130.777Z" fill="#9CA3AF" fill-opacity="0.5"/>
<path d="M1310.98 169.764C1311.54 168.991 1311.93 168.104 1312.11 167.165C1312.29 166.226 1312.26 165.259 1312.03 164.332C1311.08 164.409 1310.17 164.691 1309.34 165.157C1308.51 165.624 1307.8 166.264 1307.24 167.034C1306.68 167.805 1306.3 168.687 1306.11 169.621C1305.92 170.554 1305.94 171.517 1306.16 172.444C1307.11 172.379 1308.03 172.105 1308.87 171.642C1309.7 171.179 1310.42 170.538 1310.98 169.764Z" fill="#9CA3AF" fill-opacity="0.5"/>
<path d="M1344.84 122.991C1345.4 122.218 1345.78 121.33 1345.96 120.392C1346.14 119.453 1346.12 118.486 1345.89 117.559C1344.94 117.636 1344.02 117.918 1343.19 118.384C1342.37 118.85 1341.65 119.491 1341.09 120.261C1340.54 121.031 1340.15 121.914 1339.96 122.847C1339.78 123.781 1339.79 124.744 1340.01 125.67C1340.96 125.605 1341.89 125.332 1342.72 124.869C1343.56 124.406 1344.28 123.765 1344.84 122.991Z" fill="#9CA3AF" fill-opacity="0.5"/>
<path d="M1320.33 173.433C1320.59 172.514 1320.65 171.549 1320.5 170.604C1320.35 169.66 1320 168.76 1319.46 167.969C1318.6 168.366 1317.83 168.946 1317.22 169.668C1316.6 170.39 1316.14 171.238 1315.88 172.153C1315.62 173.068 1315.56 174.03 1315.7 174.971C1315.84 175.912 1316.19 176.811 1316.71 177.607C1317.58 177.22 1318.36 176.645 1318.98 175.924C1319.61 175.203 1320.07 174.352 1320.33 173.433Z" fill="#9CA3AF" fill-opacity="0.5"/>
<path d="M1336.2 117.859C1336.47 116.94 1336.52 115.974 1336.38 115.03C1336.23 114.086 1335.87 113.186 1335.34 112.395C1334.47 112.792 1333.71 113.371 1333.09 114.094C1332.47 114.816 1332.02 115.664 1331.76 116.579C1331.49 117.494 1331.43 118.455 1331.58 119.397C1331.72 120.338 1332.06 121.237 1332.58 122.033C1333.45 121.646 1334.23 121.071 1334.86 120.35C1335.48 119.629 1335.94 118.778 1336.2 117.859Z" fill="#9CA3AF" fill-opacity="0.5"/>
<path d="M1330.36 173.674C1330.29 172.72 1330.02 171.792 1329.56 170.956C1329.09 170.12 1328.45 169.396 1327.68 168.836C1327.01 169.505 1326.49 170.313 1326.15 171.204C1325.82 172.095 1325.68 173.048 1325.74 173.998C1325.81 174.948 1326.08 175.872 1326.53 176.707C1326.99 177.543 1327.62 178.27 1328.38 178.838C1329.07 178.175 1329.6 177.369 1329.94 176.477C1330.28 175.584 1330.43 174.627 1330.36 173.674Z" fill="#9CA3AF" fill-opacity="0.5"/>
<path d="M1326.34 116.002C1326.28 115.048 1326 114.12 1325.54 113.284C1325.08 112.448 1324.44 111.725 1323.67 111.164C1322.99 111.833 1322.47 112.641 1322.13 113.532C1321.8 114.423 1321.66 115.376 1321.73 116.326C1321.79 117.276 1322.06 118.2 1322.52 119.035C1322.97 119.871 1323.6 120.598 1324.36 121.166C1325.05 120.503 1325.58 119.697 1325.93 118.805C1326.27 117.912 1326.41 116.956 1326.34 116.002Z" fill="#9CA3AF" fill-opacity="0.5"/>
<path d="M1315.69 110.265C1315.93 111.435 1316.43 112.535 1317.15 113.489C1317.87 114.443 1318.78 115.228 1319.84 115.787C1320.56 114.841 1321.07 113.75 1321.33 112.588C1321.59 111.427 1321.6 110.222 1321.35 109.057C1321.1 107.892 1320.61 106.795 1319.9 105.84C1319.19 104.885 1318.28 104.097 1317.24 103.527C1316.51 104.468 1315.99 105.559 1315.72 106.723C1315.45 107.887 1315.44 109.097 1315.69 110.265Z" fill="#9CA3AF" fill-opacity="0.5"/>
<path d="M1330.66 180.953C1330.9 182.122 1331.4 183.223 1332.12 184.177C1332.84 185.131 1333.75 185.915 1334.81 186.474C1335.53 185.529 1336.04 184.438 1336.3 183.276C1336.56 182.114 1336.57 180.909 1336.32 179.745C1336.07 178.58 1335.58 177.482 1334.87 176.528C1334.16 175.573 1333.25 174.784 1332.21 174.215C1331.47 175.155 1330.95 176.246 1330.69 177.41C1330.42 178.575 1330.41 179.784 1330.66 180.953Z" fill="#9CA3AF" fill-opacity="0.5"/>
<path d="M1304.48 115.908C1305.11 116.922 1305.95 117.785 1306.95 118.435C1307.95 119.086 1309.08 119.508 1310.26 119.672C1310.61 118.536 1310.72 117.336 1310.57 116.154C1310.42 114.973 1310.02 113.838 1309.39 112.828C1308.76 111.818 1307.92 110.957 1306.93 110.303C1305.94 109.65 1304.81 109.22 1303.64 109.043C1303.27 110.179 1303.15 111.383 1303.3 112.569C1303.44 113.755 1303.85 114.895 1304.48 115.908Z" fill="#9CA3AF" fill-opacity="0.5"/>
<path d="M1342.63 177.193C1343.26 178.207 1344.1 179.07 1345.1 179.721C1346.1 180.371 1347.23 180.793 1348.41 180.957C1348.77 179.821 1348.87 178.621 1348.72 177.439C1348.57 176.258 1348.17 175.123 1347.54 174.113C1346.91 173.103 1346.07 172.242 1345.08 171.589C1344.09 170.935 1342.97 170.505 1341.79 170.328C1341.42 171.464 1341.31 172.668 1341.45 173.854C1341.6 175.04 1342 176.18 1342.63 177.193Z" fill="#9CA3AF" fill-opacity="0.5"/>
<path d="M1295.86 125.059C1296.8 125.795 1297.89 126.316 1299.05 126.585C1300.21 126.853 1301.41 126.862 1302.58 126.611C1302.52 125.421 1302.22 124.257 1301.67 123.198C1301.13 122.14 1300.36 121.212 1299.43 120.479C1298.49 119.746 1297.41 119.224 1296.26 118.951C1295.1 118.677 1293.9 118.658 1292.74 118.895C1292.78 120.089 1293.08 121.26 1293.62 122.326C1294.16 123.391 1294.92 124.324 1295.86 125.059Z" fill="#9CA3AF" fill-opacity="0.5"/>
<path d="M1352.6 169.551C1353.54 170.288 1354.62 170.808 1355.78 171.077C1356.94 171.345 1358.15 171.354 1359.31 171.103C1359.26 169.913 1358.95 168.749 1358.41 167.691C1357.86 166.632 1357.1 165.704 1356.16 164.971C1355.23 164.238 1354.15 163.716 1352.99 163.443C1351.84 163.17 1350.64 163.15 1349.47 163.387C1349.51 164.581 1349.81 165.753 1350.35 166.818C1350.89 167.883 1351.66 168.816 1352.6 169.551Z" fill="#9CA3AF" fill-opacity="0.5"/>
<path d="M1290.89 136.615C1292.02 136.985 1293.22 137.101 1294.4 136.955C1295.58 136.809 1296.72 136.404 1297.73 135.768C1297.27 134.668 1296.58 133.68 1295.71 132.872C1294.84 132.064 1293.81 131.455 1292.68 131.087C1291.55 130.719 1290.35 130.601 1289.18 130.74C1288 130.88 1286.86 131.274 1285.85 131.895C1286.3 133.004 1286.98 134.002 1287.85 134.817C1288.72 135.633 1289.76 136.247 1290.89 136.615Z" fill="#9CA3AF" fill-opacity="0.5"/>
<path d="M1359.36 158.947C1360.49 159.317 1361.69 159.433 1362.87 159.287C1364.06 159.141 1365.19 158.736 1366.2 158.1C1365.74 157 1365.06 156.012 1364.19 155.204C1363.31 154.396 1362.28 153.787 1361.15 153.419C1360.02 153.051 1358.83 152.933 1357.65 153.072C1356.47 153.212 1355.34 153.606 1354.32 154.227C1354.77 155.336 1355.45 156.334 1356.32 157.149C1357.19 157.965 1358.23 158.579 1359.36 158.947Z" fill="#9CA3AF" fill-opacity="0.5"/>
<path d="M1290.15 149.185C1291.34 149.144 1292.51 148.841 1293.57 148.298C1294.63 147.755 1295.56 146.985 1296.29 146.041C1295.49 145.164 1294.5 144.471 1293.41 144.011C1292.31 143.551 1291.13 143.335 1289.95 143.376C1288.76 143.418 1287.6 143.717 1286.54 144.252C1285.48 144.788 1284.55 145.547 1283.81 146.479C1284.6 147.369 1285.58 148.072 1286.68 148.54C1287.78 149.007 1288.96 149.228 1290.15 149.185Z" fill="#9CA3AF" fill-opacity="0.5"/>
<path d="M1362.1 146.661C1363.29 146.621 1364.46 146.318 1365.52 145.775C1366.58 145.232 1367.51 144.461 1368.24 143.518C1367.44 142.641 1366.46 141.948 1365.36 141.488C1364.27 141.028 1363.09 140.811 1361.9 140.853C1360.72 140.894 1359.55 141.193 1358.49 141.729C1357.43 142.264 1356.5 143.024 1355.76 143.955C1356.56 144.845 1357.54 145.549 1358.63 146.016C1359.73 146.484 1360.91 146.704 1362.1 146.661Z" fill="#9CA3AF" fill-opacity="0.5"/>
<path d="M1293.74 161.247C1294.84 160.801 1295.84 160.116 1296.65 159.241C1297.46 158.367 1298.07 157.324 1298.44 156.186C1297.38 155.637 1296.22 155.324 1295.04 155.267C1293.85 155.211 1292.67 155.412 1291.57 155.858C1290.47 156.304 1289.48 156.984 1288.67 157.852C1287.85 158.719 1287.24 159.752 1286.86 160.881C1287.91 161.445 1289.07 161.769 1290.26 161.833C1291.45 161.896 1292.64 161.696 1293.74 161.247Z" fill="#9CA3AF" fill-opacity="0.5"/>
<path d="M1360.49 134.177C1361.6 133.73 1362.59 133.045 1363.4 132.171C1364.21 131.296 1364.82 130.253 1365.19 129.116C1364.14 128.567 1362.98 128.253 1361.79 128.197C1360.61 128.14 1359.43 128.342 1358.32 128.788C1357.22 129.234 1356.23 129.914 1355.42 130.781C1354.61 131.648 1353.99 132.682 1353.61 133.811C1354.66 134.374 1355.82 134.699 1357.01 134.762C1358.2 134.825 1359.39 134.626 1360.49 134.177Z" fill="#9CA3AF" fill-opacity="0.5"/>
<path d="M1301.22 171.352C1302.11 170.553 1302.81 169.568 1303.27 168.468C1303.74 167.367 1303.95 166.178 1303.91 164.984C1302.73 164.829 1301.54 164.932 1300.41 165.286C1299.27 165.64 1298.23 166.235 1297.35 167.032C1296.47 167.829 1295.77 168.808 1295.3 169.902C1294.83 170.997 1294.6 172.18 1294.63 173.37C1295.81 173.539 1297.01 173.445 1298.15 173.097C1299.29 172.748 1300.34 172.152 1301.22 171.352Z" fill="#9CA3AF" fill-opacity="0.5"/>
<path d="M1354.73 122.996C1355.61 122.197 1356.31 121.213 1356.78 120.112C1357.24 119.012 1357.46 117.823 1357.41 116.628C1356.24 116.474 1355.04 116.577 1353.91 116.931C1352.78 117.284 1351.73 117.88 1350.85 118.677C1349.97 119.474 1349.27 120.453 1348.8 121.547C1348.33 122.641 1348.11 123.824 1348.14 125.015C1349.31 125.183 1350.52 125.09 1351.65 124.741C1352.79 124.392 1353.84 123.797 1354.73 122.996Z" fill="#9CA3AF" fill-opacity="0.5"/>
<path d="M1311.7 178.278C1312.26 177.223 1312.58 176.058 1312.64 174.864C1312.7 173.671 1312.5 172.478 1312.06 171.371C1310.9 171.63 1309.81 172.137 1308.87 172.859C1307.92 173.58 1307.14 174.498 1306.59 175.549C1306.03 176.601 1305.71 177.761 1305.64 178.95C1305.57 180.139 1305.76 181.329 1306.19 182.437C1307.36 182.191 1308.46 181.691 1309.41 180.972C1310.36 180.254 1311.14 179.334 1311.7 178.278Z" fill="#9CA3AF" fill-opacity="0.5"/>
<path d="M1345.5 114.469C1346.06 113.415 1346.38 112.249 1346.44 111.056C1346.51 109.862 1346.31 108.67 1345.86 107.562C1344.7 107.821 1343.61 108.329 1342.67 109.05C1341.72 109.771 1340.94 110.689 1340.39 111.741C1339.83 112.792 1339.51 113.953 1339.44 115.142C1339.37 116.331 1339.56 117.52 1339.99 118.629C1341.16 118.383 1342.26 117.882 1343.21 117.164C1344.16 116.445 1344.94 115.525 1345.5 114.469Z" fill="#9CA3AF" fill-opacity="0.5"/>
<path d="M1323.9 181.187C1324.07 180.004 1323.97 178.798 1323.62 177.655C1323.27 176.513 1322.68 175.461 1321.88 174.574C1320.88 175.215 1320.03 176.066 1319.39 177.067C1318.75 178.069 1318.33 179.199 1318.17 180.378C1318 181.558 1318.09 182.759 1318.43 183.899C1318.78 185.04 1319.36 186.093 1320.14 186.985C1321.16 186.354 1322.02 185.508 1322.66 184.506C1323.31 183.504 1323.74 182.371 1323.9 181.187Z" fill="#9CA3AF" fill-opacity="0.5"/>
<path d="M1333.92 109.625C1334.09 108.441 1334 107.236 1333.65 106.093C1333.3 104.95 1332.7 103.898 1331.91 103.012C1330.91 103.652 1330.06 104.503 1329.41 105.505C1328.77 106.507 1328.35 107.636 1328.19 108.816C1328.02 109.995 1328.12 111.196 1328.46 112.337C1328.8 113.478 1329.38 114.53 1330.17 115.423C1331.18 114.792 1332.04 113.945 1332.69 112.943C1333.34 111.941 1333.76 110.808 1333.92 109.625Z" fill="#9CA3AF" fill-opacity="0.5"/>
<path d="M1322.38 99.8333C1322.38 101.327 1322.7 102.803 1323.33 104.157C1323.96 105.51 1324.88 106.709 1326.02 107.667C1327.15 106.701 1328.06 105.501 1328.69 104.148C1329.31 102.796 1329.63 101.323 1329.63 99.8333C1329.63 98.3431 1329.31 96.8708 1328.69 95.5183C1328.06 94.1657 1327.15 92.9652 1326.02 92C1324.88 92.958 1323.96 94.1561 1323.33 95.5098C1322.7 96.8634 1322.38 98.3393 1322.38 99.8333Z" fill="#9CA3AF" fill-opacity="0.5"/>
<path d="M1322.38 190.165C1322.38 191.659 1322.7 193.135 1323.33 194.489C1323.96 195.842 1324.88 197.041 1326.02 197.999C1327.15 197.033 1328.06 195.833 1328.69 194.48C1329.31 193.128 1329.63 191.655 1329.63 190.165C1329.63 188.675 1329.31 187.203 1328.69 185.85C1328.06 184.498 1327.15 183.297 1326.02 182.332C1324.88 183.29 1323.96 184.488 1323.33 185.842C1322.7 187.195 1322.38 188.671 1322.38 190.165Z" fill="#9CA3AF" fill-opacity="0.5"/>
<path d="M1307.21 103.807C1307.72 105.212 1308.53 106.487 1309.58 107.543C1310.63 108.598 1311.9 109.409 1313.3 109.917C1314.04 108.622 1314.48 107.182 1314.61 105.697C1314.73 104.212 1314.53 102.718 1314.02 101.317C1313.52 99.9172 1312.71 98.6444 1311.67 97.5873C1310.62 96.5302 1309.36 95.714 1307.96 95.1953C1307.22 96.4876 1306.76 97.9288 1306.63 99.417C1306.5 100.905 1306.7 102.404 1307.21 103.807Z" fill="#9CA3AF" fill-opacity="0.5"/>
<path d="M1337.99 188.694C1338.5 190.098 1339.31 191.373 1340.36 192.429C1341.41 193.485 1342.68 194.296 1344.08 194.804C1344.82 193.508 1345.26 192.069 1345.39 190.584C1345.51 189.099 1345.31 187.604 1344.81 186.204C1344.3 184.804 1343.49 183.531 1342.45 182.474C1341.4 181.417 1340.14 180.601 1338.75 180.082C1338 181.374 1337.54 182.816 1337.41 184.304C1337.28 185.792 1337.48 187.291 1337.99 188.694Z" fill="#9CA3AF" fill-opacity="0.5"/>
<path d="M1294.31 112.75C1295.26 113.896 1296.46 114.816 1297.81 115.447C1299.16 116.077 1300.63 116.403 1302.12 116.4C1302.36 114.931 1302.29 113.425 1301.9 111.987C1301.51 110.549 1300.82 109.213 1299.86 108.071C1298.91 106.93 1297.72 106.01 1296.38 105.376C1295.03 104.742 1293.57 104.408 1292.08 104.398C1291.82 105.869 1291.89 107.38 1292.27 108.823C1292.65 110.266 1293.35 111.607 1294.31 112.75Z" fill="#9CA3AF" fill-opacity="0.5"/>
<path d="M1352.16 181.95C1353.11 183.095 1354.31 184.015 1355.66 184.646C1357 185.277 1358.48 185.602 1359.96 185.599C1360.21 184.13 1360.14 182.624 1359.75 181.186C1359.36 179.748 1358.67 178.412 1357.71 177.27C1356.76 176.129 1355.57 175.209 1354.22 174.575C1352.88 173.941 1351.42 173.607 1349.93 173.598C1349.67 175.068 1349.73 176.579 1350.12 178.022C1350.5 179.465 1351.2 180.806 1352.16 181.95Z" fill="#9CA3AF" fill-opacity="0.5"/>
<path d="M1285.23 125.584C1286.52 126.333 1287.96 126.787 1289.44 126.917C1290.92 127.046 1292.42 126.847 1293.81 126.333C1293.55 124.867 1292.97 123.477 1292.11 122.259C1291.25 121.042 1290.15 120.025 1288.86 119.28C1287.57 118.535 1286.14 118.079 1284.66 117.944C1283.19 117.81 1281.7 117.999 1280.3 118.5C1280.55 119.972 1281.13 121.369 1281.98 122.593C1282.83 123.817 1283.94 124.839 1285.23 125.584Z" fill="#9CA3AF" fill-opacity="0.5"/>
<path d="M1363.17 170.752C1364.46 171.5 1365.9 171.955 1367.38 172.085C1368.86 172.214 1370.35 172.015 1371.75 171.501C1371.48 170.035 1370.9 168.645 1370.05 167.427C1369.19 166.21 1368.08 165.193 1366.8 164.448C1365.51 163.703 1364.08 163.247 1362.6 163.112C1361.12 162.978 1359.63 163.167 1358.23 163.668C1358.49 165.14 1359.06 166.537 1359.92 167.761C1360.77 168.985 1361.88 170.007 1363.17 170.752Z" fill="#9CA3AF" fill-opacity="0.5"/>
<path d="M1281.08 140.759C1282.54 141.02 1284.05 140.954 1285.48 140.567C1286.92 140.179 1288.26 139.479 1289.39 138.517C1288.64 137.231 1287.62 136.125 1286.4 135.274C1285.19 134.423 1283.8 133.849 1282.34 133.59C1280.87 133.331 1279.37 133.394 1277.94 133.775C1276.5 134.156 1275.17 134.846 1274.02 135.796C1274.77 137.092 1275.78 138.208 1277 139.065C1278.22 139.923 1279.61 140.501 1281.08 140.759Z" fill="#9CA3AF" fill-opacity="0.5"/>
<path d="M1369.7 156.447C1371.17 156.707 1372.68 156.642 1374.11 156.254C1375.55 155.867 1376.89 155.167 1378.02 154.204C1377.27 152.919 1376.25 151.812 1375.03 150.961C1373.81 150.111 1372.43 149.536 1370.96 149.277C1369.5 149.019 1368 149.082 1366.57 149.463C1365.13 149.844 1363.8 150.533 1362.65 151.484C1363.39 152.779 1364.41 153.895 1365.63 154.753C1366.85 155.61 1368.24 156.188 1369.7 156.447Z" fill="#9CA3AF" fill-opacity="0.5"/>
<path d="M1282.34 156.447C1283.81 156.188 1285.2 155.61 1286.42 154.753C1287.64 153.895 1288.65 152.779 1289.39 151.484C1288.25 150.533 1286.92 149.844 1285.48 149.463C1284.04 149.082 1282.54 149.019 1281.08 149.277C1279.62 149.536 1278.23 150.111 1277.01 150.961C1275.79 151.812 1274.77 152.919 1274.02 154.204C1275.16 155.167 1276.5 155.867 1277.93 156.254C1279.37 156.642 1280.88 156.707 1282.34 156.447Z" fill="#9CA3AF" fill-opacity="0.5"/>
<path d="M1370.97 140.759C1372.44 140.501 1373.83 139.923 1375.05 139.065C1376.27 138.208 1377.28 137.092 1378.02 135.796C1376.88 134.846 1375.54 134.156 1374.11 133.775C1372.67 133.394 1371.17 133.331 1369.71 133.59C1368.25 133.849 1366.86 134.423 1365.64 135.274C1364.42 136.125 1363.4 137.231 1362.65 138.517C1363.79 139.479 1365.13 140.179 1366.56 140.567C1368 140.954 1369.51 141.02 1370.97 140.759Z" fill="#9CA3AF" fill-opacity="0.5"/>
<path d="M1288.88 170.752C1290.17 170.007 1291.28 168.985 1292.13 167.761C1292.98 166.537 1293.56 165.14 1293.81 163.668C1292.42 163.167 1290.93 162.978 1289.45 163.112C1287.97 163.247 1286.54 163.703 1285.25 164.448C1283.97 165.193 1282.86 166.21 1282 167.427C1281.15 168.645 1280.56 170.035 1280.3 171.501C1281.69 172.015 1283.19 172.214 1284.67 172.085C1286.15 171.955 1287.59 171.5 1288.88 170.752Z" fill="#9CA3AF" fill-opacity="0.5"/>
<path d="M1366.82 125.584C1368.1 124.839 1369.22 123.817 1370.07 122.593C1370.92 121.369 1371.5 119.972 1371.75 118.5C1370.35 117.999 1368.86 117.81 1367.38 117.944C1365.91 118.079 1364.47 118.535 1363.19 119.28C1361.9 120.025 1360.79 121.042 1359.94 122.259C1359.08 123.477 1358.5 124.867 1358.23 126.333C1359.63 126.847 1361.12 127.046 1362.61 126.917C1364.09 126.787 1365.53 126.333 1366.82 125.584Z" fill="#9CA3AF" fill-opacity="0.5"/>
<path d="M1299.89 181.95C1300.85 180.806 1301.54 179.465 1301.93 178.022C1302.31 176.579 1302.38 175.068 1302.11 173.598C1300.63 173.607 1299.17 173.941 1297.82 174.575C1296.48 175.209 1295.29 176.129 1294.33 177.27C1293.38 178.412 1292.68 179.748 1292.3 181.186C1291.91 182.624 1291.83 184.13 1292.08 185.599C1293.57 185.602 1295.04 185.277 1296.39 184.646C1297.74 184.015 1298.93 183.095 1299.89 181.95Z" fill="#9CA3AF" fill-opacity="0.5"/>
<path d="M1357.74 112.75C1358.7 111.607 1359.39 110.266 1359.78 108.823C1360.16 107.38 1360.22 105.869 1359.96 104.398C1358.48 104.408 1357.01 104.742 1355.67 105.376C1354.33 106.01 1353.14 106.93 1352.18 108.071C1351.23 109.213 1350.53 110.549 1350.14 111.987C1349.75 113.425 1349.68 114.931 1349.93 116.4C1351.42 116.403 1352.89 116.077 1354.24 115.447C1355.59 114.816 1356.78 113.896 1357.74 112.75Z" fill="#9CA3AF" fill-opacity="0.5"/>
<path d="M1314.06 188.694C1314.57 187.291 1314.77 185.792 1314.63 184.304C1314.5 182.816 1314.05 181.374 1313.3 180.082C1311.91 180.601 1310.65 181.417 1309.6 182.474C1308.56 183.531 1307.75 184.804 1307.24 186.204C1306.74 187.604 1306.54 189.099 1306.66 190.584C1306.79 192.069 1307.23 193.508 1307.96 194.804C1309.36 194.296 1310.64 193.485 1311.69 192.429C1312.74 191.373 1313.55 190.098 1314.06 188.694Z" fill="#9CA3AF" fill-opacity="0.5"/>
<path d="M1344.84 103.807C1345.35 102.404 1345.55 100.905 1345.42 99.417C1345.29 97.9288 1344.83 96.4876 1344.08 95.1953C1342.69 95.714 1341.43 96.5302 1340.38 97.5873C1339.34 98.6444 1338.53 99.9172 1338.02 101.317C1337.52 102.718 1337.32 104.212 1337.44 105.697C1337.57 107.182 1338.01 108.622 1338.75 109.917C1340.15 109.409 1341.42 108.598 1342.47 107.543C1343.52 106.487 1344.33 105.212 1344.84 103.807Z" fill="#9CA3AF" fill-opacity="0.5"/>
</g>
</g>
<defs>
<filter id="filter0_b_6013_29868" x="-4" y="-4" width="1608" height="298" filterUnits="userSpaceOnUse" color-interpolation-filters="sRGB">
<feFlood flood-opacity="0" result="BackgroundImageFix"/>
<feGaussianBlur in="BackgroundImageFix" stdDeviation="2"/>
<feComposite in2="SourceAlpha" operator="in" result="effect1_backgroundBlur_6013_29868"/>
<feBlend mode="normal" in="SourceGraphic" in2="effect1_backgroundBlur_6013_29868" result="shape"/>
</filter>
<clipPath id="clip0_6013_29868">
<rect width="1600" height="290" fill="white"/>
</clipPath>
<clipPath id="clip1_6013_29868">
<rect width="36" height="78" fill="white" transform="translate(537 106)"/>
</clipPath>
<clipPath id="clip2_6013_29868">
<rect width="103.024" height="105.182" fill="white" transform="translate(1101 92.8203)"/>
</clipPath>
<clipPath id="clip3_6013_29868">
<rect width="104" height="106" fill="white" transform="translate(1274.02 92)"/>
</clipPath>
</defs>
</svg>
