<svg width="514" height="103" viewBox="0 0 514 103" fill="none" xmlns="http://www.w3.org/2000/svg">
<g clip-path="url(#clip0_6013_28734)">
<path d="M37.5201 45.3202C37.93 45.5584 38.3871 45.7032 38.859 45.7444C39.3308 45.7856 39.8059 45.7222 40.2507 45.5586C40.1634 45.0931 39.977 44.652 39.7042 44.2655C39.4315 43.879 39.0788 43.5563 38.6703 43.3194C38.2618 43.0826 37.8072 42.9372 37.3375 42.8931C36.8679 42.8491 36.3943 42.9075 35.9492 43.0644C36.0305 43.533 36.2134 43.978 36.4848 44.3678C36.7563 44.7576 37.1097 45.0827 37.5201 45.3202Z" fill="black"/>
<path d="M62.3209 59.6991C62.7308 59.9373 63.1879 60.0821 63.6598 60.1233C64.1316 60.1645 64.6067 60.1011 65.0515 59.9375C64.9642 59.4719 64.7778 59.0308 64.505 58.6444C64.2322 58.2579 63.8795 57.9352 63.471 57.6983C63.0626 57.4615 62.6079 57.3161 62.1383 57.272C61.6686 57.228 61.1951 57.2864 60.75 57.4433C60.8313 57.9119 61.0142 58.3569 61.2856 58.7467C61.557 59.1365 61.9105 59.4616 62.3209 59.6991Z" fill="black"/>
<path d="M36.1975 50.1494C36.6639 50.2324 37.1427 50.2115 37.6001 50.0881C38.0576 49.9647 38.4824 49.7419 38.8446 49.4354C38.6041 49.0279 38.2787 48.6775 37.8907 48.408C37.5028 48.1385 37.0615 47.9564 36.5969 47.8742C36.1324 47.7919 35.6557 47.8114 35.1994 47.9314C34.7431 48.0514 34.3179 48.2689 33.9531 48.5692C34.1891 48.9816 34.5125 49.337 34.9003 49.61C35.2881 49.8831 35.731 50.0672 36.1975 50.1494Z" fill="black"/>
<path d="M64.4006 55.1455C64.867 55.2285 65.3458 55.2076 65.8032 55.0842C66.2607 54.9608 66.6855 54.738 67.0477 54.4315C66.8072 54.024 66.4818 53.6736 66.0939 53.4041C65.7059 53.1346 65.2646 52.9525 64.8001 52.8703C64.3355 52.788 63.8588 52.8075 63.4025 52.9275C62.9462 53.0474 62.5211 53.265 62.1562 53.5653C62.3922 53.9777 62.7156 54.333 63.1034 54.6061C63.4913 54.8792 63.9341 55.0633 64.4006 55.1455Z" fill="black"/>
<path d="M36.6003 55.1455C37.0668 55.0633 37.5096 54.8791 37.8975 54.6061C38.2853 54.333 38.6086 53.9777 38.8446 53.5653C38.4798 53.265 38.0547 53.0474 37.5984 52.9275C37.1421 52.8075 36.6653 52.788 36.2008 52.8703C35.7363 52.9525 35.2949 53.1346 34.907 53.4041C34.5191 53.6736 34.1937 54.024 33.9531 54.4315C34.3153 54.738 34.7402 54.9608 35.1976 55.0842C35.6551 55.2076 36.1339 55.2285 36.6003 55.1455Z" fill="black"/>
<path d="M64.8034 50.1494C65.2699 50.0672 65.7127 49.8831 66.1006 49.61C66.4884 49.3369 66.8117 48.9816 67.0477 48.5692C66.6829 48.2689 66.2578 48.0514 65.8015 47.9314C65.3452 47.8114 64.8684 47.7919 64.4039 47.8742C63.9394 47.9564 63.4981 48.1385 63.1101 48.408C62.7222 48.6775 62.3968 49.0279 62.1562 49.4354C62.5185 49.7419 62.9433 49.9647 63.4007 50.0881C63.8582 50.2115 64.337 50.2324 64.8034 50.1494Z" fill="black"/>
<path d="M38.6798 59.6991C39.0902 59.4616 39.4436 59.1365 39.7151 58.7467C39.9865 58.3569 40.1694 57.9119 40.2507 57.4433C39.8056 57.2864 39.3321 57.228 38.8624 57.272C38.3928 57.3161 37.9381 57.4615 37.5296 57.6983C37.1212 57.9352 36.7685 58.2579 36.4957 58.6444C36.2229 59.0308 36.0365 59.4719 35.9492 59.9375C36.394 60.1011 36.8691 60.1645 37.3409 60.1233C37.8128 60.0821 38.2699 59.9373 38.6798 59.6991Z" fill="black"/>
<path d="M63.4806 45.3202C63.891 45.0828 64.2445 44.7576 64.5159 44.3678C64.7873 43.978 64.9702 43.533 65.0515 43.0644C64.6064 42.9075 64.1328 42.8491 63.6632 42.8931C63.1935 42.9371 62.7389 43.0826 62.3304 43.3194C61.9219 43.5563 61.5692 43.879 61.2965 44.2655C61.0237 44.6519 60.8373 45.093 60.75 45.5586C61.1947 45.7222 61.6699 45.7856 62.1417 45.7444C62.6136 45.7032 63.0707 45.5584 63.4806 45.3202Z" fill="black"/>
<path d="M42.1844 63.2648C42.4891 62.9007 42.7105 62.4737 42.8328 62.0142C42.9552 61.5547 42.9755 61.0738 42.8923 60.6055C42.4206 60.611 41.9557 60.7187 41.5294 60.9214C41.1031 61.1241 40.7254 61.4169 40.4222 61.7798C40.119 62.1427 39.8975 62.5671 39.7728 63.024C39.648 63.4808 39.6231 63.9593 39.6996 64.4268C40.1733 64.4277 40.6413 64.3241 41.0707 64.1233C41.5001 63.9226 41.8802 63.6295 42.1844 63.2648Z" fill="black"/>
<path d="M60.5945 41.2335C60.8993 40.8694 61.1207 40.4425 61.243 39.983C61.3653 39.5234 61.3856 39.0425 61.3024 38.5742C60.8308 38.5797 60.3659 38.6875 59.9395 38.8902C59.5132 39.0928 59.1355 39.3857 58.8323 39.7485C58.5292 40.1114 58.3076 40.5358 58.1829 40.9927C58.0582 41.4496 58.0333 41.9281 58.1098 42.3955C58.5834 42.3965 59.0515 42.2929 59.4808 42.0921C59.9102 41.8913 60.2904 41.5982 60.5945 41.2335Z" fill="black"/>
<path d="M46.695 65.414C46.8574 64.9671 46.92 64.4899 46.8785 64.0161C46.837 63.5422 46.6922 63.0833 46.4546 62.6719C46.0133 62.839 45.6131 63.1 45.2815 63.4369C44.9499 63.7738 44.6947 64.1787 44.5334 64.6238C44.3721 65.069 44.3084 65.5439 44.3468 66.016C44.3852 66.4882 44.5247 66.9464 44.7558 67.3594C45.2012 67.1976 45.6058 66.9395 45.9409 66.6033C46.276 66.2671 46.5334 65.8611 46.695 65.414Z" fill="black"/>
<path d="M56.488 38.3866C56.6504 37.9398 56.713 37.4626 56.6715 36.9887C56.6299 36.5149 56.4852 36.056 56.2476 35.6445C55.8062 35.8117 55.4061 36.0727 55.0745 36.4096C54.7429 36.7465 54.4877 37.1513 54.3263 37.5965C54.165 38.0416 54.1014 38.5165 54.1398 38.9887C54.1782 39.4608 54.3177 39.9191 54.5488 40.332C54.9942 40.1702 55.3987 39.9121 55.7338 39.5759C56.0689 39.2398 56.3264 38.8338 56.488 38.3866Z" fill="black"/>
<path d="M51.6597 65.8809C51.6602 65.4052 51.5565 64.9352 51.3561 64.5043C51.1557 64.0733 50.8634 63.6917 50.5 63.3867C50.1422 63.6954 49.855 64.0781 49.6582 64.5086C49.4613 64.939 49.3594 65.4072 49.3594 65.8809C49.3594 66.3546 49.4613 66.8227 49.6582 67.2532C49.855 67.6837 50.1422 68.0664 50.5 68.375C50.8634 68.07 51.1557 67.6885 51.3561 67.2575C51.5565 66.8265 51.6602 66.3566 51.6597 65.8809Z" fill="black"/>
<path d="M51.6597 37.1192C51.6602 36.6435 51.5565 36.1735 51.3561 35.7425C51.1557 35.3115 50.8634 34.93 50.5 34.625C50.1422 34.9337 49.855 35.3164 49.6582 35.7468C49.4613 36.1773 49.3594 36.6454 49.3594 37.1192C49.3594 37.5929 49.4613 38.061 49.6582 38.4915C49.855 38.922 50.1422 39.3047 50.5 39.6133C50.8634 39.3083 51.1557 38.9268 51.3561 38.4958C51.5565 38.0648 51.6602 37.5948 51.6597 37.1192Z" fill="black"/>
<path d="M56.488 64.6172C56.3264 64.1701 56.0689 63.7641 55.7338 63.4279C55.3987 63.0918 54.9942 62.8337 54.5488 62.6719C54.3177 63.0848 54.1782 63.5431 54.1398 64.0152C54.1014 64.4874 54.165 64.9623 54.3263 65.4074C54.4877 65.8526 54.7429 66.2574 55.0745 66.5943C55.4061 66.9312 55.8062 67.1922 56.2476 67.3594C56.4852 66.9479 56.6299 66.489 56.6715 66.0152C56.713 65.5413 56.6504 65.0641 56.488 64.6172Z" fill="black"/>
<path d="M46.695 37.5899C46.5334 37.1428 46.276 36.7368 45.9409 36.4006C45.6058 36.0644 45.2012 35.8063 44.7558 35.6445C44.5247 36.0575 44.3852 36.5157 44.3468 36.9879C44.3084 37.46 44.3721 37.9349 44.5334 38.3801C44.6947 38.8252 44.9499 39.2301 45.2815 39.567C45.6131 39.9039 46.0133 40.1649 46.4546 40.332C46.6922 39.9205 46.837 39.4617 46.8785 38.9878C46.92 38.514 46.8574 38.0368 46.695 37.5899Z" fill="black"/>
<path d="M60.5945 61.7674C60.2904 61.4028 59.9102 61.1097 59.4809 60.9089C59.0515 60.7081 58.5834 60.6045 58.1098 60.6055C58.0333 61.0729 58.0582 61.5514 58.1829 62.0083C58.3076 62.4652 58.5292 62.8896 58.8323 63.2525C59.1355 63.6153 59.5132 63.9082 59.9395 64.1108C60.3659 64.3135 60.8308 64.4213 61.3024 64.4268C61.3856 63.9585 61.3653 63.4776 61.243 63.018C61.1207 62.5585 60.8993 62.1315 60.5945 61.7674Z" fill="black"/>
<path d="M42.1844 39.7362C41.8803 39.3715 41.5001 39.0784 41.0707 38.8776C40.6413 38.6768 40.1733 38.5733 39.6996 38.5742C39.6231 39.0417 39.648 39.5202 39.7728 39.9771C39.8975 40.4339 40.119 40.8583 40.4222 41.2212C40.7254 41.5841 41.1031 41.8769 41.5294 42.0796C41.9557 42.2823 42.4206 42.3901 42.8923 42.3955C42.9755 41.9272 42.9552 41.4463 42.8329 40.9868C42.7105 40.5272 42.4892 40.1003 42.1844 39.7362Z" fill="black"/>
<path d="M36.2264 40.5533C36.666 40.9516 37.1874 41.248 37.7537 41.4215C38.32 41.595 38.9173 41.6415 39.5034 41.5575C39.5172 40.9655 39.4034 40.3776 39.1699 39.8338C38.9364 39.2901 38.5886 38.8035 38.1505 38.4072C37.7123 38.011 37.1941 37.7146 36.6312 37.5382C36.0684 37.3618 35.4742 37.3096 34.8895 37.3852C34.8676 37.9794 34.9761 38.5712 35.2071 39.1186C35.4381 39.6661 35.7861 40.1559 36.2264 40.5533Z" fill="black"/>
<path d="M62.8319 64.608C63.2715 65.0063 63.7929 65.3027 64.3592 65.4762C64.9254 65.6497 65.5227 65.6961 66.1089 65.6122C66.1226 65.0202 66.0089 64.4322 65.7754 63.8885C65.5418 63.3448 65.1941 62.8581 64.7559 62.4619C64.3178 62.0657 63.7995 61.7692 63.2367 61.5928C62.6739 61.4164 62.0797 61.3643 61.4949 61.4399C61.4731 62.0341 61.5815 62.6259 61.8126 63.1733C62.0436 63.7208 62.3916 64.2106 62.8319 64.608Z" fill="black"/>
<path d="M33.3586 46.1136C33.9074 46.3368 34.4983 46.4362 35.0895 46.4048C35.6807 46.3733 36.2578 46.2118 36.78 45.9316C36.5913 45.3706 36.2842 44.8571 35.8796 44.4264C35.475 43.9957 34.9825 43.6578 34.4358 43.436C33.8891 43.2142 33.3012 43.1136 32.7122 43.1412C32.1233 43.1687 31.5472 43.3238 31.0234 43.5957C31.2053 44.1616 31.5087 44.6804 31.9122 45.1155C32.3157 45.5506 32.8095 45.8913 33.3586 46.1136Z" fill="black"/>
<path d="M66.5539 59.5823C67.1027 59.8055 67.6935 59.905 68.2848 59.8735C68.876 59.8421 69.4531 59.6805 69.9753 59.4003C69.7866 58.8393 69.4795 58.3259 69.0749 57.8951C68.6703 57.4644 68.1778 57.1266 67.6311 56.9048C67.0845 56.6829 66.4965 56.5824 65.9075 56.6099C65.3186 56.6375 64.7425 56.7925 64.2188 57.0645C64.4006 57.6303 64.704 58.1492 65.1075 58.5843C65.511 59.0193 66.0048 59.3601 66.5539 59.5823Z" fill="black"/>
<path d="M32.5597 52.3261C33.1513 52.3474 33.7404 52.2379 34.2853 52.0052C34.8301 51.7726 35.3174 51.4225 35.7127 50.9799C35.3443 50.5175 34.8809 50.1405 34.354 49.8747C33.8271 49.609 33.2493 49.4607 32.66 49.44C32.0708 49.4193 31.484 49.5268 30.94 49.755C30.3959 49.9832 29.9074 50.3268 29.5078 50.7623C29.8714 51.2315 30.3332 51.6149 30.8605 51.8851C31.3879 52.1553 31.9679 52.3059 32.5597 52.3261Z" fill="black"/>
<path d="M68.337 53.58C68.9287 53.6013 69.5178 53.4918 70.0626 53.2591C70.6075 53.0265 71.0948 52.6764 71.49 52.2338C71.1217 51.7714 70.6582 51.3944 70.1313 51.1286C69.6044 50.8629 69.0266 50.7146 68.4374 50.6939C67.8481 50.6732 67.2614 50.7807 66.7173 51.0089C66.1733 51.2371 65.6847 51.5807 65.2852 52.0162C65.6487 52.4854 66.1105 52.8688 66.6379 53.139C67.1652 53.4093 67.7453 53.5598 68.337 53.58Z" fill="black"/>
<path d="M33.9238 58.4399C34.487 58.2567 35.0033 57.9514 35.4361 57.5456C35.8688 57.1398 36.2075 56.6435 36.4282 56.0918C35.9246 55.7838 35.3607 55.5888 34.7751 55.52C34.1895 55.4512 33.596 55.5104 33.0352 55.6933C32.4745 55.8763 31.9597 56.1788 31.5262 56.5802C31.0927 56.9815 30.7506 57.4722 30.5234 58.0186C31.0249 58.3347 31.5894 58.5363 32.177 58.6091C32.7645 58.6819 33.3609 58.6241 33.9238 58.4399Z" fill="black"/>
<path d="M67.9707 47.3266C68.5339 47.1434 69.0502 46.8381 69.4829 46.4323C69.9157 46.0265 70.2544 45.5302 70.4751 44.9785C69.9715 44.6705 69.4076 44.4755 68.822 44.4067C68.2363 44.3379 67.6429 44.3971 67.0821 44.5801C66.5214 44.763 66.0066 45.0656 65.5731 45.4669C65.1395 45.8682 64.7975 46.3589 64.5703 46.9053C65.0718 47.2214 65.6362 47.423 66.2238 47.4958C66.8114 47.5686 67.4078 47.5108 67.9707 47.3266Z" fill="black"/>
<path d="M37.2879 63.7133C37.7548 63.3477 38.136 62.8835 38.4045 62.3535C38.6729 61.8236 38.8222 61.2409 38.8417 60.6466C38.2636 60.5302 37.6673 60.5406 37.0935 60.6772C36.5198 60.8137 35.9823 61.0731 35.5176 61.4377C35.053 61.8023 34.6723 62.2633 34.4016 62.7894C34.1309 63.3154 33.9766 63.894 33.9492 64.4855C34.5281 64.6103 35.1272 64.6058 35.7041 64.4724C36.281 64.339 36.8217 64.0798 37.2879 63.7133Z" fill="black"/>
<path d="M65.495 41.5766C65.9619 41.211 66.343 40.7468 66.6115 40.2168C66.88 39.6869 67.0292 39.1042 67.0487 38.5099C66.4706 38.3935 65.8743 38.4039 65.3006 38.5404C64.7269 38.677 64.1893 38.9364 63.7247 39.301C63.2601 39.6655 62.8794 40.1266 62.6087 40.6527C62.338 41.1787 62.1836 41.7573 62.1562 42.3488C62.7351 42.4736 63.3342 42.4691 63.9111 42.3357C64.4881 42.2022 65.0288 41.9431 65.495 41.5766Z" fill="black"/>
<path d="M42.244 67.5131C42.5582 67.0092 42.7582 66.442 42.8301 65.8518C42.9019 65.2616 42.8437 64.6628 42.6596 64.0977C42.0767 64.1868 41.5199 64.4015 41.0273 64.7268C40.5347 65.0522 40.1179 65.4806 39.8054 65.9828C39.493 66.485 39.2923 67.049 39.217 67.6363C39.1418 68.2236 39.1938 68.8203 39.3695 69.3856C39.956 69.304 40.5174 69.094 41.0141 68.7705C41.5108 68.4469 41.9307 68.0177 42.244 67.5131Z" fill="black"/>
<path d="M61.2127 37.0249C61.5269 36.5209 61.727 35.9538 61.7988 35.3636C61.8706 34.7733 61.8124 34.1745 61.6284 33.6094C61.0455 33.6986 60.4887 33.9132 59.9961 34.2386C59.5034 34.5639 59.0866 34.9924 58.7742 35.4945C58.4617 35.9967 58.261 36.5607 58.1858 37.148C58.1106 37.7354 58.1626 38.332 58.3383 38.8973C58.9247 38.8157 59.4862 38.6057 59.9829 38.2822C60.4796 37.9586 60.8994 37.5294 61.2127 37.0249Z" fill="black"/>
<path d="M48.195 69.3835C48.3186 68.802 48.3135 68.2004 48.18 67.6211C48.0465 67.0418 47.7879 66.4991 47.4224 66.0312C46.9051 66.3153 46.455 66.7082 46.1028 67.1832C45.7507 67.6581 45.505 68.2039 45.3824 68.7831C45.2598 69.3623 45.2633 69.9613 45.3926 70.539C45.5219 71.1167 45.774 71.6596 46.1316 72.1304C46.6549 71.8523 47.111 71.4621 47.4675 70.9875C47.8241 70.5128 48.0724 69.9652 48.195 69.3835Z" fill="black"/>
<path d="M55.6404 34.2156C55.764 33.6341 55.7588 33.0324 55.6253 32.4531C55.4918 31.8738 55.2332 31.3311 54.8678 30.8633C54.3504 31.1473 53.9003 31.5402 53.5482 32.0152C53.1961 32.4902 52.9503 33.0359 52.8277 33.6151C52.7051 34.1943 52.7086 34.7933 52.8379 35.3711C52.9672 35.9488 53.2193 36.4916 53.5769 36.9624C54.1002 36.6843 54.5563 36.2942 54.9129 35.8195C55.2694 35.3448 55.5178 34.7973 55.6404 34.2156Z" fill="black"/>
<path d="M54.4264 69.0957C54.3445 68.5068 54.1348 67.9432 53.8121 67.4447C53.4893 66.9462 53.0615 66.525 52.5588 66.2109C52.1693 66.6555 51.8802 67.1794 51.711 67.7467C51.5419 68.3139 51.4968 68.9112 51.5789 69.4976C51.6609 70.084 51.8682 70.6456 52.1865 71.1441C52.5047 71.6426 52.9265 72.0661 53.4228 72.3857C53.8199 71.9446 54.1156 71.4213 54.289 70.8528C54.4624 70.2842 54.5093 69.6844 54.4264 69.0957Z" fill="black"/>
<path d="M49.442 33.4941C49.3601 32.9052 49.1504 32.3416 48.8277 31.8431C48.505 31.3446 48.0771 30.9234 47.5744 30.6094C47.185 31.054 46.8958 31.5778 46.7267 32.1451C46.5575 32.7124 46.5125 33.3096 46.5945 33.896C46.6766 34.4824 46.8838 35.0441 47.2021 35.5425C47.5203 36.041 47.9421 36.4645 48.4385 36.7841C48.8355 36.343 49.1312 35.8197 49.3046 35.2512C49.478 34.6827 49.5249 34.0828 49.442 33.4941Z" fill="black"/>
<path d="M60.182 66.6864C59.9045 66.1612 59.5155 65.7036 59.0425 65.346C58.5694 64.9885 58.0239 64.7396 57.4446 64.6172C57.2301 65.1687 57.1367 65.7603 57.171 66.3515C57.2052 66.9426 57.3663 67.5194 57.6431 68.0422C57.9199 68.565 58.3059 69.0216 58.7747 69.3807C59.2436 69.7398 59.7841 69.9929 60.3594 70.1227C60.5822 69.5719 60.6819 68.9786 60.6512 68.3848C60.6206 67.791 60.4604 67.2112 60.182 66.6864Z" fill="black"/>
<path d="M43.3773 34.9443C43.0998 34.419 42.7108 33.9614 42.2378 33.6038C41.7647 33.2463 41.2193 32.9975 40.6399 32.875C40.4254 33.4266 40.332 34.0182 40.3663 34.6093C40.4005 35.2005 40.5616 35.7772 40.8384 36.3C41.1152 36.8229 41.5012 37.2794 41.97 37.6385C42.4389 37.9976 42.9794 38.2507 43.5547 38.3805C43.7776 37.8297 43.8772 37.2364 43.8466 36.6426C43.8159 36.0488 43.6557 35.469 43.3773 34.9443Z" fill="black"/>
<path d="M35.8853 34.3905C36.3198 34.9922 36.8806 35.4907 37.528 35.8506C38.1755 36.2106 38.8938 36.4233 39.6322 36.4737C39.8022 35.7534 39.8152 35.0048 39.6704 34.2791C39.5256 33.5533 39.2264 32.8676 38.7932 32.2687C38.36 31.6699 37.803 31.1722 37.1605 30.8096C36.518 30.447 35.805 30.2281 35.0705 30.168C34.89 30.8888 34.8694 31.6406 35.0102 32.3703C35.151 33.0999 35.4498 33.7896 35.8853 34.3905Z" fill="black"/>
<path d="M62.1861 70.7499C62.6205 71.3516 63.1813 71.8501 63.8288 72.21C64.4763 72.57 65.1946 72.7827 65.9329 72.833C66.103 72.1128 66.116 71.3642 65.9712 70.6384C65.8264 69.9127 65.5271 69.2269 65.0939 68.6281C64.6607 68.0293 64.1038 67.5316 63.4613 67.169C62.8188 66.8064 62.1058 66.5875 61.3713 66.5273C61.1908 67.2481 61.1702 68 61.311 68.7296C61.4518 69.4593 61.7505 70.149 62.1861 70.7499Z" fill="black"/>
<path d="M30.9381 40.4413C31.5512 40.8574 32.248 41.1332 32.979 41.2491C33.71 41.3649 34.4574 41.3181 35.1684 41.1117C35.0829 40.3766 34.8402 39.6686 34.457 39.0364C34.0737 38.4041 33.559 37.8625 32.948 37.4486C32.337 37.0347 31.6441 36.7583 30.9169 36.6383C30.1896 36.5183 29.4451 36.5575 28.7344 36.7533C28.8103 37.4926 29.047 38.2062 29.4278 38.8435C29.8086 39.4807 30.3242 40.0262 30.9381 40.4413Z" fill="black"/>
<path d="M68.0357 65.5741C68.6488 65.9903 69.3456 66.2661 70.0766 66.3819C70.8076 66.4978 71.555 66.4509 72.266 66.2446C72.1805 65.5094 71.9378 64.8015 71.5546 64.1692C71.1714 63.537 70.6566 62.9954 70.0456 62.5814C69.4346 62.1675 68.7418 61.8911 68.0145 61.7711C67.2873 61.6511 66.5428 61.6903 65.832 61.8861C65.9079 62.6254 66.1446 63.339 66.5254 63.9763C66.9062 64.6136 67.4218 65.159 68.0357 65.5741Z" fill="black"/>
<path d="M28.3541 47.8271C29.072 48.0075 29.8207 48.0273 30.547 47.8851C31.2734 47.7429 31.9598 47.4421 32.5577 47.004C32.2269 46.3425 31.7578 45.7606 31.1824 45.2982C30.6069 44.8357 29.9388 44.5035 29.2237 44.3245C28.5085 44.1454 27.7633 44.1237 27.0391 44.2607C26.3148 44.3977 25.6286 44.6903 25.0273 45.1184C25.3504 45.7871 25.8159 46.3763 26.3908 46.8444C26.9656 47.3124 27.6359 47.6479 28.3541 47.8271Z" fill="black"/>
<path d="M71.7721 58.7021C72.49 58.8825 73.2386 58.9023 73.965 58.7601C74.6914 58.6179 75.3778 58.3171 75.9756 57.879C75.6449 57.2175 75.1758 56.6357 74.6003 56.1732C74.0249 55.7107 73.3567 55.3785 72.6416 55.1995C71.9265 55.0204 71.1813 54.9987 70.457 55.1357C69.7328 55.2727 69.0465 55.5653 68.4453 55.9934C68.7684 56.6621 69.2338 57.2513 69.8087 57.7194C70.3836 58.1874 71.0539 58.5229 71.7721 58.7021Z" fill="black"/>
<path d="M28.4392 55.6573C29.1753 55.5802 29.8855 55.3417 30.5196 54.9585C31.1538 54.5754 31.6963 54.0569 32.1089 53.4399C31.5729 52.932 30.9339 52.5463 30.2356 52.3094C29.5374 52.0724 28.7964 51.9898 28.0635 52.0672C27.3305 52.1446 26.6228 52.3801 25.9889 52.7576C25.355 53.1352 24.8098 53.6459 24.3906 54.2547C24.9219 54.772 25.56 55.1658 26.2596 55.4082C26.9592 55.6506 27.7033 55.7356 28.4392 55.6573Z" fill="black"/>
<path d="M72.9431 50.9619C73.6792 50.8849 74.3894 50.6464 75.0235 50.2632C75.6577 49.8801 76.2002 49.3616 76.6128 48.7446C76.0768 48.2366 75.4378 47.851 74.7396 47.6141C74.0413 47.3771 73.3004 47.2945 72.5674 47.3719C71.8344 47.4493 71.1268 47.6848 70.4928 48.0623C69.8589 48.4399 69.3137 48.9505 68.8945 49.5593C69.4258 50.0767 70.0639 50.4705 70.7635 50.7129C71.4631 50.9553 72.2072 51.0403 72.9431 50.9619Z" fill="black"/>
<path d="M31.1844 62.9871C31.8499 62.6619 32.436 62.1938 32.9014 61.6159C33.3668 61.038 33.7001 60.3645 33.8777 59.643C33.201 59.3497 32.4692 59.2068 31.7324 59.224C30.9956 59.2412 30.2712 59.4181 29.6088 59.7426C28.9463 60.0671 28.3616 60.5315 27.8944 61.104C27.4273 61.6765 27.0889 62.3437 26.9023 63.0597C27.5778 63.3634 28.3115 63.5143 29.0514 63.5018C29.7914 63.4892 30.5195 63.3135 31.1844 62.9871Z" fill="black"/>
<path d="M71.4071 43.284C72.0725 42.9587 72.6587 42.4906 73.1241 41.9128C73.5895 41.3349 73.9228 40.6614 74.1004 39.9398C73.4237 39.6466 72.6919 39.5037 71.955 39.5209C71.2182 39.5381 70.4938 39.715 69.8314 40.0395C69.169 40.364 68.5842 40.8284 68.1171 41.4009C67.65 41.9734 67.3116 42.6405 67.125 43.3566C67.8005 43.6603 68.5341 43.8112 69.2741 43.7986C70.014 43.7861 70.7422 43.6104 71.4071 43.284Z" fill="black"/>
<path d="M36.2635 68.9279C36.778 68.3937 37.1694 67.7525 37.41 67.0496C37.6505 66.3467 37.7344 65.5993 37.6555 64.8603C36.9198 64.8172 36.1834 64.9343 35.4969 65.2035C34.8104 65.4728 34.1899 65.8878 33.6779 66.4203C33.1659 66.9527 32.7746 67.59 32.5306 68.2884C32.2866 68.9869 32.1958 69.73 32.2644 70.467C33.0025 70.5203 33.7433 70.4101 34.4344 70.1442C35.1254 69.8782 35.7499 69.463 36.2635 68.9279Z" fill="black"/>
<path d="M67.3494 36.5997C67.864 36.0656 68.2553 35.4243 68.4959 34.7214C68.7364 34.0186 68.8203 33.2712 68.7414 32.5322C68.0057 32.4891 67.2693 32.6062 66.5828 32.8754C65.8963 33.1447 65.2758 33.5597 64.7638 34.0921C64.2519 34.6246 63.8605 35.2618 63.6165 35.9603C63.3726 36.6587 63.2817 37.4019 63.3503 38.1389C64.0885 38.1922 64.8293 38.082 65.5203 37.816C66.2114 37.5501 66.8358 37.1348 67.3494 36.5997Z" fill="black"/>
<path d="M43.0579 72.7691C43.3595 72.0904 43.5089 71.3534 43.4956 70.6103C43.4822 69.8672 43.3065 69.1361 42.9807 68.4688C42.2747 68.681 41.6226 69.0439 41.0692 69.5328C40.5158 70.0216 40.0741 70.6247 39.7743 71.3009C39.4745 71.9771 39.3238 72.7104 39.3324 73.4505C39.341 74.1906 39.5087 74.9202 39.8241 75.5891C40.5359 75.3857 41.1945 75.0277 41.7533 74.5404C42.3121 74.0531 42.7575 73.4484 43.0579 72.7691Z" fill="black"/>
<path d="M61.2571 31.7106C61.5587 31.0319 61.7081 30.2949 61.6948 29.5518C61.6815 28.8086 61.5057 28.0775 61.1799 27.4102C60.4739 27.6224 59.8218 27.9853 59.2684 28.4742C58.715 28.963 58.2733 29.5661 57.9735 30.2423C57.6737 30.9185 57.523 31.6518 57.5316 32.3919C57.5402 33.1321 57.7079 33.8616 58.0233 34.5306C58.7351 34.3271 59.3937 33.9691 59.9525 33.4818C60.5113 32.9945 60.9567 32.3898 61.2571 31.7106Z" fill="black"/>
<path d="M50.7504 74.0419C50.8027 73.3005 50.6921 72.5567 50.4265 71.8629C50.1609 71.1692 49.7467 70.5426 49.2134 70.0273C48.6222 70.4693 48.133 71.0344 47.7795 71.6838C47.4259 72.3332 47.2162 73.0517 47.1648 73.7901C47.1134 74.5285 47.2215 75.2693 47.4816 75.9619C47.7417 76.6544 48.1478 77.2823 48.672 77.8026C49.2716 77.367 49.7685 76.8043 50.1277 76.1544C50.4868 75.5046 50.6994 74.7834 50.7504 74.0419Z" fill="black"/>
<path d="M53.8715 29.2099C53.9238 28.4685 53.8132 27.7246 53.5476 27.0309C53.282 26.3372 52.8678 25.7105 52.3345 25.1953C51.7433 25.6373 51.2541 26.2023 50.9006 26.8518C50.547 27.5012 50.3373 28.2197 50.2859 28.9581C50.2345 29.6965 50.3425 30.4373 50.6027 31.1298C50.8628 31.8224 51.2689 32.4503 51.7931 32.9706C52.3927 32.5349 52.8896 31.9723 53.2488 31.3224C53.6079 30.6725 53.8205 29.9514 53.8715 29.2099Z" fill="black"/>
<path d="M58.4111 72.5961C58.2077 71.8815 57.8505 71.2204 57.3646 70.6598C56.8788 70.0991 56.2762 69.6525 55.5996 69.3516C55.1945 69.9699 54.9273 70.6689 54.8162 71.4007C54.7052 72.1324 54.7528 72.8796 54.956 73.5911C55.1591 74.3026 55.513 74.9616 55.9933 75.523C56.4735 76.0845 57.069 76.535 57.7387 76.8439C58.1538 76.2285 58.4292 75.5291 58.5453 74.7951C58.6615 74.0611 58.6157 73.3104 58.4111 72.5961Z" fill="black"/>
<path d="M46.0751 29.3969C45.8718 28.6822 45.5145 28.0212 45.0287 27.4605C44.5429 26.8999 43.9403 26.4533 43.2636 26.1523C42.8586 26.7707 42.5914 27.4697 42.4803 28.2014C42.3692 28.9332 42.4169 29.6804 42.62 30.3919C42.8232 31.1034 43.177 31.7624 43.6573 32.3238C44.1376 32.8852 44.733 33.3358 45.4028 33.6447C45.8179 33.0293 46.0932 32.3299 46.2094 31.5959C46.3256 30.8618 46.2797 30.1111 46.0751 29.3969Z" fill="black"/>
<path d="M37.0521 26.7662C37.4276 27.6153 37.9843 28.3711 38.6828 28.9802C39.3813 29.5893 40.2045 30.0368 41.0943 30.2911C41.4885 29.4549 41.6982 28.543 41.7089 27.6178C41.7197 26.6927 41.5313 25.7761 41.1565 24.9309C40.7818 24.0856 40.2297 23.3317 39.5379 22.7206C38.8461 22.1096 38.0311 21.6559 37.1485 21.3906C36.7413 22.2248 36.5216 23.1387 36.5049 24.0676C36.4883 24.9966 36.6751 25.9178 37.0521 26.7662Z" fill="black"/>
<path d="M59.806 78.0865C60.1815 78.9356 60.7382 79.6914 61.4367 80.3005C62.1352 80.9096 62.9584 81.3572 63.8482 81.6115C64.2424 80.7752 64.4521 79.8633 64.4628 78.9382C64.4736 78.013 64.2852 77.0964 63.9105 76.2512C63.5357 75.4059 62.9836 74.652 62.2918 74.041C61.6001 73.4299 60.785 72.9762 59.9024 72.7109C59.4952 73.5452 59.2755 74.4591 59.2588 75.388C59.2422 76.3169 59.429 77.2381 59.806 78.0865Z" fill="black"/>
<path d="M29.44 32.8766C30.082 33.5455 30.8626 34.0645 31.7264 34.397C32.5902 34.7294 33.5162 34.8672 34.4388 34.8005C34.5245 33.8793 34.411 32.9504 34.1061 32.0773C33.8011 31.2043 33.3119 30.4077 32.6719 29.7421C32.032 29.0766 31.2564 28.5578 30.3982 28.2212C29.5401 27.8846 28.6197 27.7383 27.7 27.7921C27.6014 28.7159 27.7062 29.6501 28.0069 30.5288C28.3076 31.4074 28.7968 32.2089 29.44 32.8766Z" fill="black"/>
<path d="M68.2955 73.2868C68.9375 73.9556 69.718 74.4747 70.5818 74.8071C71.4456 75.1396 72.3716 75.2773 73.2943 75.2107C73.38 74.2895 73.2665 73.3605 72.9615 72.4875C72.6566 71.6144 72.1674 70.8178 71.5274 70.1523C70.8874 69.4867 70.1119 68.9679 69.2537 68.6314C68.3956 68.2948 67.4752 68.1484 66.5555 68.2023C66.4569 69.1261 66.5617 70.0603 66.8624 70.9389C67.1631 71.8175 67.6523 72.619 68.2955 73.2868Z" fill="black"/>
<path d="M24.3666 41.2329C25.1977 41.6409 26.1079 41.8605 27.0329 41.8762C27.9578 41.8919 28.8749 41.7033 29.7192 41.3237C29.486 40.4286 29.063 39.5947 28.4791 38.879C27.8952 38.1634 27.1642 37.5829 26.3362 37.1773C25.5082 36.7717 24.6027 36.5506 23.6817 36.5291C22.7606 36.5076 21.8459 36.6862 21 37.0527C21.222 37.9546 21.6386 38.7965 22.2204 39.5189C22.8021 40.2412 23.5348 40.8264 24.3666 41.2329Z" fill="black"/>
<path d="M74.6439 65.8579C75.475 66.2659 76.3853 66.4855 77.3102 66.5012C78.2351 66.5169 79.1522 66.3283 79.9966 65.9487C79.7634 65.0536 79.3403 64.2197 78.7564 63.504C78.1725 62.7884 77.4416 62.2079 76.6135 61.8023C75.7855 61.3967 74.88 61.1756 73.959 61.1541C73.038 61.1326 72.1232 61.3112 71.2773 61.6777C71.4993 62.5796 71.9159 63.4216 72.4977 64.1439C73.0794 64.8662 73.8121 65.4514 74.6439 65.8579Z" fill="black"/>
<path d="M22.4465 50.8274C23.3665 50.9254 24.2966 50.8191 25.1711 50.5161C26.0456 50.2131 26.8431 49.7209 27.5073 49.0742C26.9833 48.3132 26.3018 47.6748 25.5094 47.2029C24.717 46.731 23.8324 46.4366 22.9162 46.3399C22 46.2432 21.0738 46.3464 20.201 46.6426C19.3282 46.9387 18.5294 47.4208 17.8594 48.0558C18.3751 48.827 19.0533 49.4751 19.846 49.954C20.6387 50.433 21.5265 50.7311 22.4465 50.8274Z" fill="black"/>
<path d="M78.0755 56.6985C78.9954 56.7964 79.9255 56.6902 80.8 56.3872C81.6745 56.0842 82.472 55.592 83.1362 54.9453C82.6122 54.1843 81.9307 53.5459 81.1383 53.074C80.3459 52.6021 79.4613 52.3077 78.5451 52.211C77.6289 52.1142 76.7027 52.2175 75.8299 52.5137C74.9571 52.8098 74.1583 53.2919 73.4883 53.9269C74.004 54.6981 74.6822 55.3462 75.4749 55.8251C76.2676 56.3041 77.1554 56.6022 78.0755 56.6985Z" fill="black"/>
<path d="M23.9107 60.5026C24.8084 60.2786 25.6463 59.8593 26.3649 59.2742C27.0834 58.6891 27.6652 57.9526 28.0691 57.1168C27.3176 56.5816 26.4598 56.2159 25.5544 56.0446C24.6491 55.8733 23.7176 55.9005 22.8237 56.1244C21.9298 56.3482 21.0947 56.7634 20.3754 57.3415C19.6561 57.9196 19.0697 58.6469 18.6562 59.4738C19.4036 60.0214 20.2615 60.3973 21.1695 60.5751C22.0775 60.7529 23.0133 60.7281 23.9107 60.5026Z" fill="black"/>
<path d="M78.1841 46.9127C79.0819 46.6888 79.9197 46.2694 80.6383 45.6844C81.3569 45.0993 81.9387 44.3628 82.3425 43.5269C81.591 42.9918 80.7332 42.626 79.8279 42.4548C78.9226 42.2835 77.9911 42.3107 77.0972 42.5345C76.2033 42.7583 75.3681 43.1735 74.6488 43.7516C73.9295 44.3297 73.3431 45.0571 72.9297 45.8839C73.677 46.4315 74.535 46.8075 75.4429 46.9853C76.3509 47.1631 77.2867 47.1383 78.1841 46.9127Z" fill="black"/>
<path d="M28.577 69.0927C29.3443 68.5738 29.9888 67.892 30.4648 67.0953C30.9408 66.2987 31.2367 65.4068 31.3316 64.4826C30.4431 64.2379 29.5125 64.1889 28.6034 64.3389C27.6944 64.4889 26.8283 64.8344 26.0646 65.3518C25.3008 65.8692 24.6574 66.5462 24.1783 67.3365C23.6993 68.1268 23.396 69.0118 23.2891 69.9307C24.1778 70.1886 25.1121 70.2472 26.0258 70.1024C26.9396 69.9576 27.8105 69.6129 28.577 69.0927Z" fill="black"/>
<path d="M74.952 37.6786C75.7193 37.1597 76.3638 36.4779 76.8398 35.6813C77.3158 34.8847 77.6117 33.9927 77.7066 33.0686C76.8181 32.8238 75.8875 32.7748 74.9784 32.9248C74.0694 33.0748 73.2033 33.4204 72.4396 33.9377C71.6758 34.4551 71.0324 35.1321 70.5533 35.9225C70.0743 36.7128 69.7709 37.5977 69.6641 38.5167C70.5528 38.7745 71.4871 38.8331 72.4008 38.6883C73.3146 38.5435 74.1855 38.1988 74.952 37.6786Z" fill="black"/>
<path d="M35.8912 75.5634C36.4356 74.8123 36.809 73.9501 36.985 73.0381C37.161 72.126 37.1353 71.1862 36.9097 70.2852C35.9915 70.3604 35.1003 70.634 34.2972 71.0872C33.494 71.5404 32.7979 72.1626 32.2564 72.9111C31.7149 73.6596 31.3408 74.5168 31.1598 75.424C30.9788 76.3312 30.9951 77.267 31.2076 78.1673C32.1306 78.1043 33.0284 77.8385 33.8378 77.3885C34.6471 76.9386 35.3481 76.3155 35.8912 75.5634Z" fill="black"/>
<path d="M68.7701 30.1142C69.3145 29.363 69.6879 28.5009 69.8639 27.5888C70.0399 26.6767 70.0142 25.737 69.7886 24.8359C68.8704 24.9111 67.9792 25.1847 67.1761 25.638C66.3729 26.0912 65.6768 26.7134 65.1353 27.4619C64.5938 28.2104 64.2197 29.0676 64.0387 29.9748C63.8577 30.882 63.874 31.8178 64.0865 32.718C65.0095 32.6551 65.9074 32.3892 66.7167 31.9393C67.526 31.4893 68.227 30.8663 68.7701 30.1142Z" fill="black"/>
<path d="M44.965 79.1301C45.2208 78.2372 45.2781 77.2988 45.1329 76.3813C44.9876 75.4638 44.6434 74.5895 44.1246 73.8203C43.2874 74.2064 42.5431 74.7696 41.9427 75.4714C41.3424 76.1731 40.9001 76.9969 40.6461 77.8863C40.3922 78.7757 40.3326 79.7097 40.4715 80.6243C40.6103 81.539 40.9443 82.4127 41.4506 83.1857C42.2965 82.8095 43.0497 82.2513 43.657 81.5505C44.2643 80.8496 44.7108 80.0233 44.965 79.1301Z" fill="black"/>
<path d="M60.383 25.1262C60.6388 24.2333 60.6961 23.2949 60.5508 22.3774C60.4056 21.4599 60.0614 20.5856 59.5426 19.8164C58.7053 20.2025 57.9611 20.7657 57.3607 21.4675C56.7603 22.1692 56.318 22.993 56.0641 23.8824C55.8102 24.7718 55.7506 25.7058 55.8895 26.6204C56.0283 27.5351 56.3623 28.4088 56.8686 29.1818C57.7145 28.8056 58.4677 28.2474 59.075 27.5466C59.6822 26.8457 60.1288 26.0194 60.383 25.1262Z" fill="black"/>
<path d="M54.7085 79.361C54.6448 78.4342 54.3791 77.5327 53.9301 76.7204C53.4812 75.9081 52.86 75.2047 52.1105 74.6602C51.4553 75.3105 50.9477 76.0954 50.6225 76.9611C50.2973 77.8268 50.1623 78.7528 50.2265 79.6758C50.2908 80.5988 50.5529 81.4969 50.9948 82.3087C51.4368 83.1205 52.0482 83.8268 52.7872 84.3793C53.454 83.7352 53.9716 82.9519 54.3036 82.0848C54.6356 81.2176 54.7738 80.2878 54.7085 79.361Z" fill="black"/>
<path d="M50.8061 23.322C50.7424 22.3951 50.4767 21.4936 50.0278 20.6813C49.5788 19.869 48.9576 19.1657 48.2082 18.6211C47.5529 19.2715 47.0453 20.0564 46.7202 20.922C46.395 21.7877 46.2599 22.7137 46.3242 23.6367C46.3884 24.5597 46.6505 25.4578 47.0925 26.2696C47.5345 27.0814 48.1459 27.7877 48.8849 28.3402C49.5516 27.6961 50.0693 26.9128 50.4013 26.0457C50.7333 25.1785 50.8715 24.2487 50.8061 23.322Z" fill="black"/>
<path d="M40.4591 17.7466C40.6985 18.8828 41.1836 19.9522 41.88 20.8793C42.5764 21.8064 43.4671 22.5684 44.4892 23.1116C45.1899 22.1929 45.6841 21.1327 45.938 20.0038C46.1918 18.875 46.1992 17.7044 45.9596 16.5724C45.72 15.4404 45.2392 14.374 44.5501 13.4465C43.8611 12.5189 42.9802 11.7523 41.968 11.1992C41.2543 12.1129 40.7492 13.173 40.4884 14.3044C40.2277 15.4358 40.2177 16.6109 40.4591 17.7466Z" fill="black"/>
<path d="M54.9981 86.4341C55.2376 87.5703 55.7226 88.6397 56.419 89.5668C57.1155 90.4939 58.0062 91.256 59.0283 91.7991C59.729 90.8804 60.2232 89.8202 60.4771 88.6913C60.7309 87.5625 60.7383 86.3919 60.4987 85.2599C60.2591 84.128 59.7783 83.0615 59.0892 82.134C58.4002 81.2064 57.5193 80.4398 56.5071 79.8867C55.7934 80.8004 55.2882 81.8605 55.0275 82.9919C54.7667 84.1233 54.7567 85.2984 54.9981 86.4341Z" fill="black"/>
<path d="M29.5702 23.2295C30.1821 24.2149 31.0021 25.0532 31.9722 25.6851C32.9424 26.3171 34.0389 26.7272 35.1843 26.8866C35.5299 25.7826 35.6333 24.6165 35.4874 23.4686C35.3415 22.3206 34.9498 21.2181 34.3391 20.2366C33.7285 19.2552 32.9135 18.4183 31.9501 17.7834C30.9867 17.1485 29.8979 16.7306 28.7584 16.5586C28.3988 17.6624 28.2852 18.832 28.4255 19.9847C28.5658 21.1375 28.9565 22.2452 29.5702 23.2295Z" fill="black"/>
<path d="M66.6249 82.7803C67.2368 83.7657 68.0568 84.604 69.0269 85.236C69.9971 85.8679 71.0936 86.278 72.239 86.4374C72.5846 85.3334 72.688 84.1673 72.5421 83.0194C72.3962 81.8714 72.0045 80.7688 71.3938 79.7874C70.7832 78.806 69.9682 77.9691 69.0048 77.3341C68.0414 76.6992 66.9526 76.2814 65.8131 76.1094C65.4535 77.2131 65.3399 78.3828 65.4802 79.5355C65.6205 80.6883 66.0112 81.796 66.6249 82.7803Z" fill="black"/>
<path d="M21.2065 32.1219C22.1171 32.8377 23.1731 33.3438 24.3 33.6044C25.4268 33.865 26.5969 33.8738 27.7275 33.63C27.6763 32.4739 27.3763 31.3427 26.8483 30.3141C26.3202 29.2855 25.5767 28.3839 24.6686 27.6715C23.7606 26.959 22.7097 26.4525 21.5882 26.1868C20.4667 25.921 19.3012 25.9024 18.1719 26.1322C18.2099 27.2929 18.5014 28.431 19.0258 29.4661C19.5502 30.5011 20.2946 31.4078 21.2065 32.1219Z" fill="black"/>
<path d="M76.3041 75.3563C77.2147 76.0721 78.2708 76.5782 79.3976 76.8388C80.5245 77.0994 81.6946 77.1081 82.8252 76.8644C82.7739 75.7083 82.474 74.577 81.9459 73.5484C81.4179 72.5199 80.6743 71.6183 79.7663 70.9058C78.8583 70.1934 77.8074 69.6869 76.6859 69.4211C75.5644 69.1554 74.3989 69.1368 73.2695 69.3666C73.3076 70.5273 73.5991 71.6654 74.1235 72.7004C74.6479 73.7354 75.3923 74.6421 76.3041 75.3563Z" fill="black"/>
<path d="M16.3758 43.3533C17.4752 43.7132 18.64 43.826 19.7876 43.6838C20.9352 43.5417 22.0377 43.148 23.0171 42.5306C22.5753 41.4618 21.9082 40.5018 21.0617 39.7166C20.2152 38.9314 19.2094 38.3397 18.1135 37.9821C17.0177 37.6245 15.8576 37.5095 14.7133 37.645C13.5689 37.7805 12.4674 38.1634 11.4844 38.7672C11.9154 39.8448 12.5769 40.8142 13.4222 41.6067C14.2674 42.3992 15.2757 42.9955 16.3758 43.3533Z" fill="black"/>
<path d="M82.8719 65.0526C83.9713 65.4124 85.1361 65.5252 86.2837 65.3831C87.4313 65.2409 88.5338 64.8472 89.5132 64.2298C89.0714 63.161 88.4043 62.201 87.5578 61.4158C86.7113 60.6306 85.7055 60.0389 84.6096 59.6813C83.5138 59.3237 82.3537 59.2087 81.2094 59.3442C80.065 59.4797 78.9635 59.8626 77.9805 60.4664C78.4115 61.5441 79.073 62.5134 79.9183 63.3059C80.7635 64.0984 81.7718 64.6947 82.8719 65.0526Z" fill="black"/>
<path d="M15.6583 55.5671C16.8139 55.5276 17.9468 55.2335 18.9768 54.7057C20.0069 54.1779 20.9088 53.4293 21.6189 52.5127C20.8397 51.6601 19.8859 50.9872 18.8231 50.5401C17.7602 50.093 16.6136 49.8825 15.462 49.9229C14.3104 49.9632 13.1812 50.2536 12.152 50.7741C11.1228 51.2945 10.2181 52.0327 9.5 52.9377C10.272 53.8023 11.2238 54.486 12.2879 54.9403C13.3521 55.3947 14.5027 55.6087 15.6583 55.5671Z" fill="black"/>
<path d="M85.5372 53.114C86.6928 53.0745 87.8257 52.7804 88.8558 52.2526C89.8858 51.7248 90.7877 50.9761 91.4978 50.0596C90.7186 49.207 89.7648 48.5341 88.702 48.087C87.6391 47.6399 86.4925 47.4293 85.3409 47.4697C84.1893 47.5101 83.0601 47.8005 82.0309 48.321C81.0017 48.8414 80.097 49.5795 79.3789 50.4846C80.1509 51.3492 81.1027 52.0328 82.1668 52.4872C83.231 52.9416 84.3816 53.1555 85.5372 53.114Z" fill="black"/>
<path d="M19.1433 67.2887C20.2158 66.8546 21.1802 66.1892 21.9683 65.3394C22.7565 64.4896 23.3491 63.4763 23.7042 62.3711C22.6816 61.8376 21.5562 61.5328 20.4052 61.4778C19.2542 61.4228 18.105 61.6188 17.0366 62.0523C15.9683 62.4858 15.0061 63.1466 14.2162 63.9891C13.4263 64.8317 12.8275 65.8361 12.4609 66.9332C13.4808 67.4805 14.608 67.796 15.7627 67.8574C16.9174 67.9189 18.0715 67.7247 19.1433 67.2887Z" fill="black"/>
<path d="M83.9752 40.984C85.0478 40.5499 86.0122 39.8845 86.8003 39.0347C87.5885 38.1849 88.1811 37.1716 88.5362 36.0664C87.5137 35.5329 86.3882 35.2282 85.2372 35.1731C84.0863 35.1181 82.9371 35.3141 81.8687 35.7476C80.8003 36.1811 79.8381 36.8419 79.0482 37.6844C78.2583 38.527 77.6595 39.5314 77.293 40.6285C78.3129 41.1758 79.44 41.4913 80.5947 41.5527C81.7494 41.6141 82.9035 41.42 83.9752 40.984Z" fill="black"/>
<path d="M26.4108 77.107C27.2708 76.3307 27.9504 75.3741 28.4016 74.3048C28.8529 73.2355 29.0646 72.0798 29.0219 70.9192C27.8794 70.7692 26.718 70.8694 25.6177 71.213C24.5174 71.5567 23.5042 72.1356 22.6479 72.9099C21.7916 73.6843 21.1124 74.6357 20.6571 75.6988C20.2018 76.7619 19.9812 77.9114 20.0104 79.0683C21.1551 79.2322 22.3218 79.1415 23.4278 78.8026C24.5338 78.4637 25.5521 77.8848 26.4108 77.107Z" fill="black"/>
<path d="M78.3717 30.1187C79.2317 29.3424 79.9114 28.3858 80.3626 27.3165C80.8138 26.2473 81.0256 25.0915 80.9829 23.931C79.8403 23.7809 78.679 23.8811 77.5786 24.2247C76.4783 24.5684 75.4652 25.1473 74.6089 25.9216C73.7525 26.696 73.0734 27.6474 72.6181 28.7105C72.1628 29.7736 71.9421 30.9231 71.9713 32.08C73.1161 32.2439 74.2827 32.1532 75.3887 31.8143C76.4947 31.4754 77.513 30.8965 78.3717 30.1187Z" fill="black"/>
<path d="M36.5867 83.8326C37.1305 82.8077 37.4434 81.6753 37.5033 80.5155C37.5631 79.3558 37.3685 78.197 36.9332 77.1211C35.8084 77.3725 34.7512 77.8656 33.8343 78.5665C32.9174 79.2674 32.1625 80.1594 31.6215 81.1812C31.0805 82.2029 30.7663 83.3303 30.7005 84.4857C30.6347 85.641 30.8188 86.797 31.2402 87.8741C32.3718 87.6349 33.4372 87.149 34.3611 86.4506C35.285 85.7522 36.0448 84.8585 36.5867 83.8326Z" fill="black"/>
<path d="M69.4109 21.8326C69.9547 20.8077 70.2676 19.6753 70.3275 18.5155C70.3873 17.3558 70.1927 16.197 69.7574 15.1211C68.6326 15.3725 67.5754 15.8656 66.6585 16.5665C65.7416 17.2674 64.9867 18.1594 64.4457 19.1812C63.9048 20.203 63.5906 21.3303 63.5247 22.4857C63.4589 23.641 63.6431 24.797 64.0645 25.8741C65.196 25.6349 66.2614 25.149 67.1853 24.4506C68.1092 23.7522 68.869 22.8585 69.4109 21.8326Z" fill="black"/>
<path d="M48.4354 86.664C48.5974 85.5142 48.5058 84.3426 48.1671 83.2322C47.8284 82.1218 47.2509 81.0997 46.4754 80.2383C45.5041 80.8609 44.6786 81.6874 44.0556 82.661C43.4327 83.6345 43.0271 84.732 42.8667 85.878C42.7064 87.024 42.795 88.1913 43.1266 89.2996C43.4583 90.4079 44.025 91.4309 44.7878 92.2983C45.7696 91.6849 46.6053 90.8622 47.2356 89.8886C47.8659 88.915 48.2755 87.8142 48.4354 86.664Z" fill="black"/>
<path d="M58.1659 17.125C58.3279 15.9751 58.2363 14.8035 57.8976 13.6931C57.5589 12.5828 56.9813 11.5607 56.2059 10.6992C55.2346 11.3218 54.4091 12.1483 53.7861 13.1219C53.1632 14.0955 52.7576 15.193 52.5972 16.339C52.4368 17.485 52.5255 18.6522 52.8571 19.7605C53.1887 20.8688 53.7554 21.8918 54.5182 22.7592C55.5001 22.1458 56.3357 21.3232 56.9661 20.3496C57.5964 19.376 58.006 18.2751 58.1659 17.125Z" fill="black"/>
<path d="M46.9609 7.61157C46.9597 9.06322 47.276 10.4974 47.8876 11.8127C48.4992 13.128 49.3911 14.2923 50.5002 15.2231C51.5986 14.2852 52.4809 13.1187 53.086 11.8045C53.691 10.4902 54.0044 9.05953 54.0044 7.61157C54.0044 6.16361 53.691 4.73296 53.086 3.41868C52.4809 2.1044 51.5986 0.937914 50.5002 0C49.3911 0.930865 48.4992 2.09513 47.8876 3.41042C47.276 4.72572 46.9597 6.15992 46.9609 7.61157Z" fill="black"/>
<path d="M46.9609 95.3889C46.9597 96.8406 47.276 98.2748 47.8876 99.5901C48.4992 100.905 49.3911 102.07 50.5002 103C51.5986 102.063 52.4809 100.896 53.086 99.5818C53.691 98.2675 54.0044 96.8369 54.0044 95.3889C54.0044 93.941 53.691 92.5103 53.086 91.196C52.4809 89.8817 51.5986 88.7153 50.5002 87.7773C49.3911 88.7082 48.4992 89.8725 47.8876 91.1878C47.276 92.5031 46.9597 93.9373 46.9609 95.3889Z" fill="black"/>
<path d="M32.2269 11.4737C32.72 12.8383 33.5057 14.0773 34.5284 15.1032C35.551 16.1291 36.7856 16.9168 38.1448 17.4105C38.8576 16.1519 39.2894 14.7527 39.4104 13.3099C39.5314 11.867 39.3387 10.415 38.8456 9.05434C38.3525 7.6937 37.5708 6.45697 36.5546 5.42979C35.5385 4.4026 34.3121 3.60952 32.9606 3.10547C32.2353 4.36117 31.7937 5.76159 31.6669 7.20764C31.5401 8.6537 31.7313 10.1101 32.2269 11.4737Z" fill="black"/>
<path d="M62.1214 93.9581C62.6146 95.3226 63.4003 96.5617 64.4229 97.5876C65.4455 98.6135 66.6801 99.4012 68.0394 99.8949C68.7521 98.6363 69.184 97.2371 69.3049 95.7942C69.4259 94.3514 69.2332 92.8994 68.7401 91.5387C68.247 90.1781 67.4653 88.9413 66.4491 87.9142C65.433 86.887 64.2067 86.0939 62.8551 85.5898C62.1299 86.8455 61.6883 88.246 61.5615 89.692C61.4347 91.1381 61.6258 92.5944 62.1214 93.9581Z" fill="black"/>
<path d="M19.7005 20.1625C20.6286 21.2753 21.7888 22.1698 23.0992 22.7825C24.4095 23.3953 25.8379 23.7114 27.2833 23.7085C27.5245 22.2809 27.4538 20.8178 27.0761 19.4204C26.6984 18.023 26.0228 16.7247 25.0961 15.6155C24.1693 14.5063 23.0136 13.6127 21.7089 12.9965C20.4042 12.3803 18.9818 12.0563 17.5401 12.0469C17.2862 13.476 17.3481 14.9436 17.7214 16.346C18.0948 17.7484 18.7704 19.0513 19.7005 20.1625Z" fill="black"/>
<path d="M75.8801 87.4047C76.8083 88.5175 77.9685 89.412 79.2789 90.0247C80.5892 90.6375 82.0176 90.9536 83.463 90.9507C83.7042 89.5231 83.6334 88.06 83.2558 86.6626C82.8781 85.2652 82.2025 83.9669 81.2758 82.8577C80.349 81.7485 79.1933 80.8549 77.8886 80.2387C76.5839 79.6225 75.1615 79.2985 73.7197 79.2891C73.4659 80.7182 73.5278 82.1858 73.9011 83.5882C74.2745 84.9906 74.9501 86.2935 75.8801 87.4047Z" fill="black"/>
<path d="M10.8837 32.6326C12.1349 33.3595 13.5298 33.8015 14.9698 33.9272C16.4098 34.0529 17.8597 33.8593 19.2169 33.3601C18.9574 31.9358 18.3926 30.5852 17.5618 29.4018C16.7311 28.2184 15.6541 27.2305 14.4055 26.5065C13.1569 25.7825 11.7665 25.3397 10.3307 25.2089C8.89484 25.078 7.44782 25.2621 6.08984 25.7485C6.33798 27.1786 6.89598 28.5365 7.72438 29.7261C8.55278 30.9157 9.63133 31.9079 10.8837 32.6326Z" fill="black"/>
<path d="M86.5751 76.5232C87.8263 77.2501 89.2212 77.6921 90.6612 77.8178C92.1012 77.9435 93.5511 77.7499 94.9083 77.2507C94.6487 75.8264 94.084 74.4758 93.2532 73.2924C92.4225 72.109 91.3455 71.1211 90.0969 70.3971C88.8483 69.6731 87.4579 69.2304 86.0221 69.0995C84.5862 68.9686 83.1392 69.1527 81.7812 69.6391C82.0294 71.0692 82.5874 72.4271 83.4158 73.6167C84.2442 74.8063 85.3227 75.7985 86.5751 76.5232Z" fill="black"/>
<path d="M6.84919 47.3799C8.27243 47.6332 9.73372 47.5694 11.1297 47.1929C12.5256 46.8164 13.8222 46.1364 14.9276 45.2011C14.1986 43.9518 13.208 42.8767 12.0243 42.05C10.8406 41.2233 9.49213 40.6649 8.07229 40.4135C6.65244 40.1621 5.19514 40.2236 3.80131 40.5938C2.40748 40.964 1.11044 41.6341 0 42.5576C0.720195 43.8162 1.70697 44.9005 2.89053 45.7338C4.07408 46.5671 5.4255 47.1291 6.84919 47.3799Z" fill="black"/>
<path d="M92.9234 62.622C94.3466 62.8754 95.8079 62.8116 97.2039 62.4351C98.5998 62.0585 99.8964 61.3786 101.002 60.4432C100.273 59.194 99.2822 58.1188 98.0985 57.2922C96.9148 56.4655 95.5663 55.9071 94.1465 55.6557C92.7266 55.4043 91.2693 55.4658 89.8755 55.836C88.4817 56.2062 87.1847 56.8763 86.0742 57.7998C86.7944 59.0584 87.7812 60.1427 88.9647 60.976C90.1483 61.8093 91.4997 62.3712 92.9234 62.622Z" fill="black"/>
<path d="M8.07839 62.6221C9.50207 62.3713 10.8535 61.8093 12.037 60.976C13.2206 60.1427 14.2074 59.0584 14.9276 57.7998C13.8171 56.8763 12.5201 56.2062 11.1263 55.836C9.73244 55.4658 8.27514 55.4043 6.85529 55.6557C5.43544 55.9071 4.08698 56.4655 2.90329 57.2922C1.7196 58.1188 0.728965 59.194 0 60.4433C1.10539 61.3786 2.40193 62.0586 3.79789 62.4351C5.19385 62.8116 6.65514 62.8754 8.07839 62.6221Z" fill="black"/>
<path d="M94.1526 47.3799C95.5763 47.1291 96.9277 46.5671 98.1112 45.7338C99.2948 44.9005 100.282 43.8162 101.002 42.5576C99.8913 41.6341 98.5943 40.964 97.2005 40.5938C95.8066 40.2236 94.3494 40.1621 92.9295 40.4135C91.5097 40.6649 90.1612 41.2233 88.9775 42.05C87.7938 42.8766 86.8032 43.9518 86.0742 45.2011C87.1796 46.1364 88.4761 46.8164 89.8721 47.1929C91.2681 47.5694 92.7293 47.6332 94.1526 47.3799Z" fill="black"/>
<path d="M14.423 76.5232C15.6754 75.7985 16.754 74.8063 17.5824 73.6167C18.4108 72.4271 18.9688 71.0692 19.2169 69.6391C17.859 69.1527 16.412 68.9686 14.9761 69.0995C13.5403 69.2304 12.1499 69.6731 10.9013 70.3971C9.6527 71.1211 8.57572 72.109 7.74493 73.2924C6.91415 74.4758 6.34941 75.8264 6.08984 77.2507C7.4471 77.7499 8.89701 77.9435 10.337 77.8178C11.777 77.6921 13.1719 77.2501 14.423 76.5232Z" fill="black"/>
<path d="M90.1144 32.6326C91.3668 31.9079 92.4454 30.9157 93.2738 29.7261C94.1022 28.5365 94.6602 27.1786 94.9083 25.7485C93.5503 25.2621 92.1033 25.078 90.6675 25.2089C89.2316 25.3397 87.8413 25.7825 86.5927 26.5065C85.3441 27.2305 84.2671 28.2184 83.4363 29.4018C82.6055 30.5852 82.0408 31.9358 81.7812 33.3601C83.1385 33.8593 84.5884 34.0529 86.0284 33.9272C87.4684 33.8015 88.8633 33.3595 90.1144 32.6326Z" fill="black"/>
<path d="M25.1215 87.4047C26.0515 86.2935 26.7271 84.9906 27.1004 83.5882C27.4738 82.1858 27.5357 80.7182 27.2818 79.2891C25.8401 79.2985 24.4177 79.6225 23.113 80.2387C21.8083 80.8549 20.6526 81.7485 19.7258 82.8577C18.7991 83.9669 18.1235 85.2652 17.7458 86.6626C17.3681 88.06 17.2974 89.5231 17.5386 90.9507C18.984 90.9536 20.4124 90.6375 21.7227 90.0247C23.0331 89.412 24.1933 88.5175 25.1215 87.4047Z" fill="black"/>
<path d="M81.3011 20.1625C82.2312 19.0513 82.9068 17.7484 83.2801 16.346C83.6535 14.9436 83.7154 13.476 83.4615 12.0469C82.0198 12.0563 80.5974 12.3803 79.2927 12.9965C77.988 13.6127 76.8322 14.5063 75.9055 15.6155C74.9788 16.7247 74.3032 18.023 73.9255 19.4204C73.5478 20.8178 73.4771 22.2809 73.7182 23.7085C75.1637 23.7114 76.5921 23.3953 77.9024 22.7825C79.2128 22.1698 80.373 21.2753 81.3011 20.1625Z" fill="black"/>
<path d="M38.8788 93.9581C39.3744 92.5944 39.5655 91.1381 39.4387 89.692C39.312 88.246 38.8703 86.8455 38.1451 85.5898C36.7935 86.0939 35.5672 86.887 34.5511 87.9142C33.5349 88.9413 32.7532 90.1781 32.2601 91.5387C31.767 92.8994 31.5743 94.3514 31.6953 95.7942C31.8162 97.2371 32.2481 98.6363 32.9608 99.8949C34.3201 99.4012 35.5547 98.6135 36.5773 97.5876C37.6 96.5617 38.3856 95.3227 38.8788 93.9581Z" fill="black"/>
<path d="M68.7733 11.4737C69.2689 10.1101 69.4601 8.6537 69.3333 7.20764C69.2065 5.76159 68.7649 4.36117 68.0396 3.10547C66.6881 3.60952 65.4617 4.4026 64.4456 5.42979C63.4294 6.45697 62.6477 7.6937 62.1546 9.05434C61.6615 10.415 61.4688 11.867 61.5898 13.3099C61.7108 14.7527 62.1426 16.1519 62.8554 17.4105C64.2146 16.9168 65.4492 16.1291 66.4719 15.1032C67.4945 14.0773 68.2802 12.8383 68.7733 11.4737Z" fill="black"/>
</g>
<path d="M170.768 51.1731C170.768 56.3062 169.781 60.6573 167.806 64.2261C165.832 67.795 163.159 70.5059 159.788 72.3587C156.431 74.2115 152.665 75.1378 148.489 75.1378C144.297 75.1378 140.523 74.2039 137.167 72.3359C133.811 70.4679 131.146 67.7571 129.171 64.2034C127.212 60.6345 126.233 56.2911 126.233 51.1731C126.233 46.04 127.212 41.689 129.171 38.1201C131.146 34.5512 133.811 31.8404 137.167 29.9876C140.523 28.1348 144.297 27.2084 148.489 27.2084C152.665 27.2084 156.431 28.1348 159.788 29.9876C163.159 31.8404 165.832 34.5512 167.806 38.1201C169.781 41.689 170.768 46.04 170.768 51.1731ZM159.241 51.1731C159.241 48.1358 158.808 45.5692 157.943 43.4734C157.092 41.3776 155.862 39.7906 154.252 38.7124C152.658 37.6341 150.736 37.095 148.489 37.095C146.256 37.095 144.335 37.6341 142.725 38.7124C141.116 39.7906 139.878 41.3776 139.012 43.4734C138.162 45.5692 137.737 48.1358 137.737 51.1731C137.737 54.2105 138.162 56.777 139.012 58.8728C139.878 60.9686 141.116 62.5556 142.725 63.6339C144.335 64.7121 146.256 65.2513 148.489 65.2513C150.736 65.2513 152.658 64.7121 154.252 63.6339C155.862 62.5556 157.092 60.9686 157.943 58.8728C158.808 56.777 159.241 54.2105 159.241 51.1731ZM177.351 87.6214V39.5097H188.377V45.5009H188.719C189.174 44.4378 189.82 43.4127 190.655 42.4255C191.505 41.4384 192.584 40.6335 193.89 40.0108C195.211 39.373 196.79 39.0541 198.628 39.0541C201.058 39.0541 203.328 39.6919 205.439 40.9676C207.565 42.2433 209.281 44.21 210.588 46.8677C211.894 49.5253 212.547 52.912 212.547 57.0276C212.547 60.9914 211.916 64.3097 210.656 66.9825C209.411 69.6554 207.725 71.6601 205.599 72.9965C203.488 74.3329 201.141 75.0012 198.56 75.0012C196.798 75.0012 195.272 74.7126 193.981 74.1355C192.69 73.5584 191.604 72.7991 190.723 71.8575C189.858 70.9159 189.189 69.906 188.719 68.8277H188.491V87.6214H177.351ZM188.263 57.0048C188.263 58.888 188.514 60.5282 189.015 61.9254C189.531 63.3225 190.268 64.4084 191.224 65.1829C192.196 65.9423 193.358 66.3219 194.71 66.3219C196.077 66.3219 197.238 65.9423 198.195 65.1829C199.152 64.4084 199.873 63.3225 200.359 61.9254C200.86 60.5282 201.111 58.888 201.111 57.0048C201.111 55.1217 200.86 53.4891 200.359 52.1071C199.873 50.7251 199.152 49.6544 198.195 48.8951C197.254 48.1358 196.092 47.7561 194.71 47.7561C193.343 47.7561 192.181 48.1282 191.224 48.8723C190.268 49.6165 189.531 50.6795 189.015 52.0615C188.514 53.4435 188.263 55.0913 188.263 57.0048ZM234.74 75.1606C231.08 75.1606 227.921 74.4393 225.264 72.9965C222.621 71.5386 220.586 69.4656 219.159 66.7775C217.746 64.0743 217.04 60.8623 217.04 57.1415C217.04 53.5271 217.754 50.3682 219.181 47.665C220.609 44.9465 222.621 42.8356 225.218 41.3321C227.815 39.8134 230.875 39.0541 234.398 39.0541C236.889 39.0541 239.167 39.4413 241.233 40.2159C243.298 40.9904 245.082 42.137 246.586 43.6557C248.089 45.1743 249.259 47.0499 250.094 49.2824C250.929 51.4996 251.347 54.0434 251.347 56.9137V59.6929H220.935V53.2233H240.982C240.967 52.0388 240.686 50.9833 240.139 50.0569C239.592 49.1305 238.841 48.4091 237.884 47.8928C236.942 47.3612 235.856 47.0955 234.626 47.0955C233.381 47.0955 232.265 47.3764 231.278 47.9383C230.29 48.4851 229.508 49.2368 228.931 50.1936C228.354 51.1351 228.05 52.2058 228.02 53.4056V59.989C228.02 61.4166 228.301 62.6695 228.863 63.7478C229.425 64.8108 230.222 65.6385 231.255 66.2308C232.288 66.8231 233.518 67.1192 234.945 67.1192C235.932 67.1192 236.828 66.9825 237.633 66.7092C238.438 66.4358 239.129 66.0334 239.706 65.5018C240.283 64.9703 240.716 64.3173 241.005 63.5427L251.233 63.8389C250.808 66.1321 249.874 68.1291 248.431 69.8301C247.004 71.5158 245.128 72.8295 242.804 73.771C240.481 74.6974 237.793 75.1606 234.74 75.1606ZM268.176 54.5446V74.5H257.036V39.5097H267.629V45.9337H268.016C268.791 43.7923 270.112 42.1142 271.98 40.8993C273.848 39.6691 276.073 39.0541 278.655 39.0541C281.115 39.0541 283.249 39.6084 285.056 40.717C286.878 41.8105 288.291 43.3443 289.293 45.3186C290.311 47.2777 290.812 49.5709 290.796 52.1982V74.5H279.657V54.3851C279.672 52.4412 279.179 50.9225 278.176 49.8291C277.189 48.7356 275.815 48.1889 274.053 48.1889C272.884 48.1889 271.851 48.4471 270.955 48.9634C270.074 49.4646 269.391 50.186 268.905 51.1276C268.434 52.0691 268.191 53.2081 268.176 54.5446ZM297.693 74.5V27.8462H329.54V37.0039H308.969V46.5715H327.512V55.7519H308.969V74.5H297.693ZM334.529 74.5V39.5097H345.349V45.8881H345.714C346.352 43.5797 347.392 41.8636 348.835 40.7398C350.277 39.6008 351.956 39.0313 353.869 39.0313C354.385 39.0313 354.917 39.0693 355.464 39.1452C356.01 39.2059 356.519 39.3047 356.99 39.4413V49.1229C356.458 48.9407 355.76 48.7964 354.894 48.6901C354.044 48.5838 353.284 48.5306 352.616 48.5306C351.295 48.5306 350.103 48.8268 349.04 49.419C347.992 49.9961 347.164 50.8086 346.557 51.8565C345.964 52.8892 345.668 54.1042 345.668 55.5013V74.5H334.529ZM370.077 75.0923C367.845 75.0923 365.863 74.7202 364.132 73.9761C362.415 73.2167 361.056 72.0777 360.054 70.559C359.067 69.0252 358.573 67.104 358.573 64.7957C358.573 62.8517 358.915 61.2116 359.598 59.8751C360.282 58.5387 361.223 57.4528 362.423 56.6176C363.623 55.7823 365.005 55.152 366.569 54.7268C368.133 54.2864 369.804 53.9903 371.581 53.8384C373.57 53.6562 375.172 53.4663 376.387 53.2689C377.602 53.0563 378.483 52.7601 379.03 52.3805C379.592 51.9856 379.873 51.4313 379.873 50.7175V50.6036C379.873 49.4342 379.47 48.5306 378.665 47.8928C377.86 47.2549 376.775 46.936 375.408 46.936C373.935 46.936 372.75 47.2549 371.854 47.8928C370.958 48.5306 370.388 49.4114 370.145 50.5353L359.872 50.1708C360.175 48.0446 360.957 46.1463 362.218 44.4757C363.494 42.79 365.24 41.4688 367.457 40.512C369.69 39.54 372.37 39.0541 375.499 39.0541C377.731 39.0541 379.789 39.3198 381.672 39.8514C383.555 40.3677 385.196 41.1271 386.593 42.1294C387.99 43.1165 389.068 44.3315 389.828 45.7742C390.602 47.217 390.989 48.8647 390.989 50.7175V74.5H380.51V69.625H380.237C379.614 70.8096 378.817 71.8119 377.845 72.632C376.888 73.4521 375.757 74.0672 374.451 74.4772C373.16 74.8873 371.702 75.0923 370.077 75.0923ZM373.517 67.8026C374.717 67.8026 375.795 67.5596 376.752 67.0737C377.724 66.5877 378.498 65.9195 379.075 65.069C379.652 64.2034 379.941 63.201 379.941 62.062V58.7361C379.622 58.9032 379.235 59.0551 378.779 59.1917C378.339 59.3284 377.853 59.4575 377.321 59.579C376.79 59.7005 376.243 59.8068 375.681 59.8979C375.119 59.989 374.58 60.0726 374.064 60.1485C373.016 60.3156 372.12 60.5737 371.376 60.923C370.647 61.2723 370.085 61.7279 369.69 62.2898C369.31 62.8366 369.12 63.4896 369.12 64.2489C369.12 65.4031 369.53 66.284 370.351 66.8914C371.186 67.4989 372.241 67.8026 373.517 67.8026ZM414.134 75.1606C410.444 75.1606 407.277 74.4013 404.635 72.8826C402.007 71.3639 399.987 69.253 398.575 66.5497C397.163 63.8313 396.457 60.6876 396.457 57.1187C396.457 53.5347 397.163 50.391 398.575 47.6878C400.003 44.9693 402.03 42.8508 404.657 41.3321C407.3 39.8134 410.451 39.0541 414.111 39.0541C417.346 39.0541 420.163 39.6388 422.563 40.8081C424.977 41.9775 426.86 43.6329 428.212 45.7742C429.579 47.9004 430.3 50.3986 430.376 53.2689H419.966C419.753 51.4768 419.146 50.0721 418.143 49.0546C417.156 48.037 415.865 47.5283 414.271 47.5283C412.98 47.5283 411.848 47.8928 410.876 48.6217C409.904 49.3355 409.145 50.3986 408.598 51.811C408.067 53.2081 407.801 54.9394 407.801 57.0048C407.801 59.0702 408.067 60.8167 408.598 62.2443C409.145 63.6566 409.904 64.7273 410.876 65.4563C411.848 66.1701 412.98 66.5269 414.271 66.5269C415.303 66.5269 416.215 66.3067 417.004 65.8663C417.809 65.4259 418.47 64.7805 418.986 63.93C419.502 63.0644 419.829 62.0165 419.966 60.7863H430.376C430.27 63.6718 429.549 66.1928 428.212 68.3494C426.891 70.5059 425.03 72.184 422.631 73.3838C420.247 74.5683 417.414 75.1606 414.134 75.1606ZM455.827 39.5097V47.7105H433.753V39.5097H455.827ZM438.378 31.1266H449.517V63.4972C449.517 64.1806 449.624 64.7349 449.836 65.1601C450.064 65.5702 450.39 65.8663 450.816 66.0486C451.241 66.2156 451.75 66.2991 452.342 66.2991C452.767 66.2991 453.215 66.2612 453.686 66.1852C454.172 66.0941 454.536 66.0182 454.779 65.9574L456.465 73.9988C455.934 74.1507 455.182 74.3405 454.21 74.5683C453.253 74.7961 452.107 74.9404 450.77 75.0012C448.158 75.1227 445.918 74.8189 444.05 74.09C442.197 73.3458 440.777 72.1916 439.79 70.6274C438.818 69.0631 438.347 67.0964 438.378 64.7273V31.1266ZM471.375 75.0923C469.142 75.0923 467.161 74.7202 465.429 73.9761C463.713 73.2167 462.354 72.0777 461.352 70.559C460.364 69.0252 459.871 67.104 459.871 64.7957C459.871 62.8517 460.213 61.2116 460.896 59.8751C461.579 58.5387 462.521 57.4528 463.721 56.6176C464.92 55.7823 466.302 55.152 467.867 54.7268C469.431 54.2864 471.101 53.9903 472.878 53.8384C474.868 53.6562 476.47 53.4663 477.685 53.2689C478.9 53.0563 479.781 52.7601 480.327 52.3805C480.889 51.9856 481.17 51.4313 481.17 50.7175V50.6036C481.17 49.4342 480.768 48.5306 479.963 47.8928C479.158 47.2549 478.072 46.936 476.705 46.936C475.232 46.936 474.048 47.2549 473.152 47.8928C472.256 48.5306 471.686 49.4114 471.443 50.5353L461.169 50.1708C461.473 48.0446 462.255 46.1463 463.516 44.4757C464.791 42.79 466.538 41.4688 468.755 40.512C470.988 39.54 473.668 39.0541 476.797 39.0541C479.029 39.0541 481.087 39.3198 482.97 39.8514C484.853 40.3677 486.493 41.1271 487.89 42.1294C489.288 43.1165 490.366 44.3315 491.125 45.7742C491.9 47.217 492.287 48.8647 492.287 50.7175V74.5H481.808V69.625H481.535C480.912 70.8096 480.115 71.8119 479.143 72.632C478.186 73.4521 477.055 74.0672 475.749 74.4772C474.458 74.8873 473 75.0923 471.375 75.0923ZM474.815 67.8026C476.014 67.8026 477.093 67.5596 478.049 67.0737C479.021 66.5877 479.796 65.9195 480.373 65.069C480.95 64.2034 481.239 63.201 481.239 62.062V58.7361C480.92 58.9032 480.532 59.0551 480.077 59.1917C479.636 59.3284 479.15 59.4575 478.619 59.579C478.087 59.7005 477.541 59.8068 476.979 59.8979C476.417 59.989 475.878 60.0726 475.361 60.1485C474.313 60.3156 473.417 60.5737 472.673 60.923C471.944 61.2723 471.382 61.7279 470.988 62.2898C470.608 62.8366 470.418 63.4896 470.418 64.2489C470.418 65.4031 470.828 66.284 471.648 66.8914C472.483 67.4989 473.539 67.8026 474.815 67.8026ZM510.238 27.8462V74.5H499.098V27.8462H510.238Z" fill="black"/>
<defs>
<clipPath id="clip0_6013_28734">
<rect width="101" height="103" fill="white"/>
</clipPath>
</defs>
</svg>
